<svg width="24" height="24" viewBox="0 0 24 24" fill="none" xmlns="http://www.w3.org/2000/svg">
<path d="M12 11.625C9.93225 11.625 8.25 9.85875 8.25 7.6875C8.25 5.51625 9.93225 3.75 12 3.75C14.0677 3.75 15.75 5.51625 15.75 7.6875C15.75 9.85875 14.0677 11.625 12 11.625ZM19.0189 17.1998C19.4299 18.3079 18.5974 19.5 17.4026 19.5H13.6065L12.3064 15.6L12.918 14.3768C12.585 14.3295 12.2445 14.3036 11.8987 14.3036C11.5256 14.3036 11.1592 14.3351 10.8011 14.3899L11.4064 15.6L10.1062 19.5H6.39525C5.20763 19.5 4.36537 18.3146 4.779 17.1994C5.75437 14.5703 8.61525 12.8032 11.8984 12.8032C15.1823 12.8036 18.0435 14.5703 19.0189 17.1998Z" fill="#2A64E9"/>
</svg>
