<svg width="24" height="24" viewBox="0 0 24 24" fill="none" xmlns="http://www.w3.org/2000/svg">
<path fill-rule="evenodd" clip-rule="evenodd" d="M6.34314 2.34315C7.84343 0.842855 9.87827 0 12 0C14.1217 0 16.1566 0.842855 17.6569 2.34315C19.1571 3.84344 20 5.87827 20 8V12.9939C20.0286 15.2833 20.6692 17.5235 21.8554 19.482L22.7747 21H1.22525L2.14464 19.482C3.3308 17.5235 3.97137 15.2833 4 12.9939V8C4 5.87827 4.84285 3.84344 6.34314 2.34315ZM12 2C10.4087 2 8.88257 2.63214 7.75736 3.75736C6.63214 4.88258 6 6.4087 6 8V13.012C5.97502 15.086 5.51551 17.125 4.65852 19H19.3415C18.4845 17.125 18.025 15.086 18.0001 13.012L17.9999 13L18 8C18 6.4087 17.3679 4.88258 16.2426 3.75736C15.1174 2.63214 13.5913 2 12 2Z" fill="#1D2939"/>
<path d="M9.17401 22C9.3818 22.5832 9.76496 23.0879 10.2709 23.4447C10.7769 23.8016 11.3809 23.9932 12 23.9932C12.6192 23.9932 13.2231 23.8016 13.7291 23.4447C14.2351 23.0879 14.6182 22.5832 14.826 22H9.17401Z" fill="#1D2939"/>
</svg>
