<svg width="24" height="24" viewBox="0 0 24 24" fill="none" xmlns="http://www.w3.org/2000/svg">
<path fill-rule="evenodd" clip-rule="evenodd" d="M0 21C0 20.4477 0.447715 20 1 20H23C23.5523 20 24 20.4477 24 21C24 21.5523 23.5523 22 23 22H1C0.447715 22 0 21.5523 0 21Z" fill="#1D2939"/>
<path fill-rule="evenodd" clip-rule="evenodd" d="M1 8C1 7.44772 1.44772 7 2 7H6C6.55228 7 7 7.44772 7 8V17C7 17.5523 6.55228 18 6 18H2C1.44772 18 1 17.5523 1 17V8ZM3 9V16H5V9H3Z" fill="#1D2939"/>
<path fill-rule="evenodd" clip-rule="evenodd" d="M9 3C9 2.44772 9.44772 2 10 2H14C14.5523 2 15 2.44772 15 3V17C15 17.5523 14.5523 18 14 18H10C9.44772 18 9 17.5523 9 17V3ZM11 4V16H13V4H11Z" fill="#1D2939"/>
<path fill-rule="evenodd" clip-rule="evenodd" d="M17 12C17 11.4477 17.4477 11 18 11H22C22.5523 11 23 11.4477 23 12V17C23 17.5523 22.5523 18 22 18H18C17.4477 18 17 17.5523 17 17V12ZM19 13V16H21V13H19Z" fill="#1D2939"/>
</svg>
