<svg width="24" height="24" viewBox="0 0 24 24" fill="none" xmlns="http://www.w3.org/2000/svg">
<path fill-rule="evenodd" clip-rule="evenodd" d="M2 6C2 5.44772 2.44772 5 3 5H21C21.5523 5 22 5.44772 22 6V23C22 23.5523 21.5523 24 21 24H3C2.44772 24 2 23.5523 2 23V6ZM4 7V22H20V7H4Z" fill="#1D2939"/>
<path fill-rule="evenodd" clip-rule="evenodd" d="M12 2C10.3523 2 9 3.35228 9 5V9C9 9.55229 8.55228 10 8 10C7.44772 10 7 9.55229 7 9V5C7 2.24772 9.24772 0 12 0C14.7523 0 17 2.24772 17 5V9C17 9.55229 16.5523 10 16 10C15.4477 10 15 9.55229 15 9V5C15 3.35228 13.6477 2 12 2Z" fill="#1D2939"/>
</svg>
