<svg width="24" height="24" viewBox="0 0 24 24" fill="none" xmlns="http://www.w3.org/2000/svg">
<path d="M19.32 16.5712C20.0513 16.5712 20.6475 17.1637 20.6475 17.8987C20.6475 18.63 20.0513 19.2225 19.32 19.2225C18.585 19.2225 17.9925 18.63 17.9925 17.8987C17.9925 17.8162 18 17.7337 18.015 17.655L15.96 15.5962L14.4563 17.1C14.31 17.2462 14.1188 17.3212 13.9275 17.3212C13.7363 17.3212 13.545 17.2462 13.395 17.1C13.1168 16.8217 13.1033 16.3766 13.3549 16.0822C13.3676 16.0672 13.3811 16.0526 13.395 16.0387C13.3613 16.0162 12.6975 15.36 12.6975 15.36L16.8075 11.25C16.8075 11.25 17.4675 11.9137 17.49 11.9512C17.5031 11.9392 17.5163 11.9276 17.5301 11.9167C17.8226 11.6824 18.249 11.7015 18.5213 11.9737C18.8175 12.2662 18.8175 12.7425 18.5213 13.035L17.0213 14.5387L19.0763 16.5937C19.155 16.5787 19.2375 16.5712 19.32 16.5712ZM18.1463 7.79625L10.065 15.8775L10.23 16.0387C10.5225 16.3312 10.5225 16.8075 10.23 17.1C10.08 17.2462 9.88875 17.3212 9.6975 17.3212C9.50625 17.3212 9.315 17.2462 9.16875 17.1L7.665 15.5962L5.60625 17.655C5.62125 17.7337 5.6325 17.8125 5.6325 17.8987C5.6325 18.63 5.04 19.2225 4.305 19.2225C3.57375 19.2225 2.9775 18.63 2.9775 17.8987C2.9775 17.1637 3.57375 16.5712 4.305 16.5712C4.3875 16.5712 4.47 16.5787 4.54875 16.5937L6.60375 14.535L5.10375 13.035C4.8075 12.7425 4.8075 12.2662 5.10375 11.9737C5.39625 11.6812 5.86875 11.6812 6.16125 11.9737L6.2475 12.06L14.3288 3.97875C14.4675 3.84375 14.6625 3.76875 14.8875 3.7575C14.8913 3.7575 17.1563 4.23 17.1563 4.23C17.3205 4.26862 17.4818 4.36725 17.613 4.497C17.7491 4.63125 17.853 4.79887 17.895 4.96875L18.3338 6.8175C18.4313 7.2225 18.36 7.57875 18.1463 7.79625ZM6.765 9.4275L5.3325 7.99125C5.1525 7.81125 5.0775 7.56 5.12625 7.3125L5.6475 4.7175C5.6775 4.56375 5.7525 4.42875 5.86125 4.3275C5.96625 4.22625 6.105 4.155 6.25875 4.12875L8.82 3.70125C9.05625 3.66375 9.3 3.73875 9.4725 3.91125L10.8788 5.3175L6.765 9.4275Z" fill="#2A64E9"/>
</svg>
