<svg width="24" height="24" viewBox="0 0 24 24" fill="none" xmlns="http://www.w3.org/2000/svg">
<g clip-path="url(#clip0_681_581)">
<path fill-rule="evenodd" clip-rule="evenodd" d="M7 6C6.44772 6 6 6.44772 6 7V21C6 21.5523 6.44772 22 7 22H21C21.5523 22 22 21.5523 22 21V7C22 6.44772 21.5523 6 21 6H7ZM4 7C4 5.34315 5.34315 4 7 4H21C22.6569 4 24 5.34315 24 7V21C24 22.6569 22.6569 24 21 24H7C5.34315 24 4 22.6569 4 21V7Z" fill="#1D2939"/>
<path fill-rule="evenodd" clip-rule="evenodd" d="M0.87868 0.87868C1.44129 0.316071 2.20435 0 3 0H17C17.7957 0 18.5587 0.316071 19.1213 0.87868C19.6839 1.44129 20 2.20435 20 3V5C20 5.55228 19.5523 6 19 6C18.4477 6 18 5.55228 18 5V3C18 2.73478 17.8946 2.48043 17.7071 2.29289C17.5196 2.10536 17.2652 2 17 2H3C2.73478 2 2.48043 2.10536 2.29289 2.29289C2.10536 2.48043 2 2.73478 2 3V17C2 17.2652 2.10536 17.5196 2.29289 17.7071C2.48043 17.8946 2.73478 18 3 18H5C5.55228 18 6 18.4477 6 19C6 19.5523 5.55228 20 5 20H3C2.20435 20 1.44129 19.6839 0.87868 19.1213C0.316071 18.5587 0 17.7957 0 17V3C0 2.20435 0.316071 1.44129 0.87868 0.87868Z" fill="#1D2939"/>
<path d="M9.5 11C10.3284 11 11 10.3284 11 9.5C11 8.67157 10.3284 8 9.5 8C8.67157 8 8 8.67157 8 9.5C8 10.3284 8.67157 11 9.5 11Z" fill="#1D2939"/>
<path d="M18.5 11C19.3284 11 20 10.3284 20 9.5C20 8.67157 19.3284 8 18.5 8C17.6716 8 17 8.67157 17 9.5C17 10.3284 17.6716 11 18.5 11Z" fill="#1D2939"/>
<path d="M9.5 20C10.3284 20 11 19.3284 11 18.5C11 17.6716 10.3284 17 9.5 17C8.67157 17 8 17.6716 8 18.5C8 19.3284 8.67157 20 9.5 20Z" fill="#1D2939"/>
<path d="M18.5 20C19.3284 20 20 19.3284 20 18.5C20 17.6716 19.3284 17 18.5 17C17.6716 17 17 17.6716 17 18.5C17 19.3284 17.6716 20 18.5 20Z" fill="#1D2939"/>
<path d="M14 15.5C14.8284 15.5 15.5 14.8284 15.5 14C15.5 13.1716 14.8284 12.5 14 12.5C13.1716 12.5 12.5 13.1716 12.5 14C12.5 14.8284 13.1716 15.5 14 15.5Z" fill="#1D2939"/>
</g>
<defs>
<clipPath id="clip0_681_581">
<rect width="24" height="24" fill="white"/>
</clipPath>
</defs>
</svg>
