<svg width="24" height="24" viewBox="0 0 24 24" fill="none" xmlns="http://www.w3.org/2000/svg">
<path fill-rule="evenodd" clip-rule="evenodd" d="M24 4V16C24 16.7957 23.6839 17.5587 23.1213 18.1213C22.5587 18.6839 21.7957 19 21 19H20V23.8685L12.6972 19H11V17H13.3028L18 20.1315V17H21C21.2652 17 21.5196 16.8946 21.7071 16.7071C21.8946 16.5196 22 16.2652 22 16V4H24Z" fill="#101828"/>
<path fill-rule="evenodd" clip-rule="evenodd" d="M0.87868 1.87868C1.44129 1.31607 2.20435 1 3 1H17C17.7957 1 18.5587 1.31607 19.1213 1.87868C19.6839 2.44129 20 3.20435 20 4V12C20 12.7957 19.6839 13.5587 19.1213 14.1213C18.5587 14.6839 17.7957 15 17 15H12.3205L4 20.9432V15H3C2.20435 15 1.44129 14.6839 0.87868 14.1213C0.316071 13.5587 0 12.7956 0 12V4C0 3.20435 0.316071 2.44129 0.87868 1.87868ZM3 3C2.73478 3 2.48043 3.10536 2.29289 3.29289C2.10536 3.48043 2 3.73478 2 4V12C2 12.2652 2.10536 12.5196 2.29289 12.7071C2.48043 12.8946 2.73478 13 3 13H6V17.0568L11.6795 13H17C17.2652 13 17.5196 12.8946 17.7071 12.7071C17.8946 12.5196 18 12.2652 18 12V4C18 3.73478 17.8946 3.48043 17.7071 3.29289C17.5196 3.10536 17.2652 3 17 3H3Z" fill="#101828"/>
</svg>
