<svg width="24" height="24" viewBox="0 0 24 24" fill="none" xmlns="http://www.w3.org/2000/svg">
<g clip-path="url(#clip0_652_607)">
<path fill-rule="evenodd" clip-rule="evenodd" d="M14 6C12.088 6 10.4022 7.44856 10.0852 9.27134C9.99057 9.81546 9.47276 10.1798 8.92865 10.0852C8.38453 9.99058 8.02015 9.47278 8.11478 8.92866C8.59777 6.15144 11.112 4 14 4C17.3523 4 20 6.64772 20 10C20 11.3265 19.5236 12.6352 18.8 13.6C18.4686 14.0418 17.8418 14.1314 17.4 13.8C16.9582 13.4686 16.8686 12.8418 17.2 12.4C17.6764 11.7648 18 10.8735 18 10C18 7.75228 16.2477 6 14 6Z" fill="#1D2939"/>
<path fill-rule="evenodd" clip-rule="evenodd" d="M21 10C21 9.44772 21.4477 9 22 9H23C23.5523 9 24 9.44772 24 10C24 10.5523 23.5523 11 23 11H22C21.4477 11 21 10.5523 21 10Z" fill="#1D2939"/>
<path fill-rule="evenodd" clip-rule="evenodd" d="M21.1071 2.8929C21.4976 3.28342 21.4976 3.91659 21.1071 4.30711L20.4071 5.00711C20.0166 5.39764 19.3834 5.39764 18.9929 5.00711C18.6024 4.61659 18.6024 3.98343 18.9929 3.5929L19.6929 2.8929C20.0834 2.50238 20.7166 2.50237 21.1071 2.8929Z" fill="#1D2939"/>
<path fill-rule="evenodd" clip-rule="evenodd" d="M14 0C14.5523 0 15 0.447715 15 1V2C15 2.55228 14.5523 3 14 3C13.4477 3 13 2.55228 13 2V1C13 0.447715 13.4477 0 14 0Z" fill="#1D2939"/>
<path fill-rule="evenodd" clip-rule="evenodd" d="M6.8929 2.8929C7.28342 2.50238 7.91659 2.50238 8.30711 2.8929L9.00711 3.5929C9.39764 3.98342 9.39764 4.61659 9.00711 5.00711C8.61659 5.39764 7.98342 5.39764 7.5929 5.00711L6.8929 4.30711C6.50238 3.91659 6.50238 3.28342 6.8929 2.8929Z" fill="#1D2939"/>
<path fill-rule="evenodd" clip-rule="evenodd" d="M0 16C0 11.5477 3.54772 8 8 8C11.1857 8 14.0211 9.90387 15.3037 12.6666C16.1117 12.2539 17.0507 12 18 12C21.3523 12 24 14.6477 24 18C24 21.3523 21.3523 24 18 24H8C3.54772 24 0 20.4523 0 16ZM8 10C4.65228 10 2 12.6523 2 16C2 19.3477 4.65228 22 8 22H18C20.2477 22 22 20.2477 22 18C22 15.7523 20.2477 14 18 14C17.0553 14 16.0863 14.4033 15.4585 14.9526C15.1984 15.1802 14.8392 15.2573 14.5086 15.1566C14.178 15.0559 13.9228 14.7916 13.8338 14.4577C13.1498 11.8928 10.7443 10 8 10Z" fill="#1D2939"/>
</g>
<defs>
<clipPath id="clip0_652_607">
<rect width="24" height="24" fill="white"/>
</clipPath>
</defs>
</svg>
