<svg width="24" height="24" viewBox="0 0 24 24" fill="none" xmlns="http://www.w3.org/2000/svg">
<path fill-rule="evenodd" clip-rule="evenodd" d="M17.423 10.917C17.9162 10.6684 18.5175 10.8668 18.766 11.36L22.893 19.55C23.069 19.8993 23.0253 20.3191 22.781 20.6245C22.5368 20.93 22.1369 21.065 21.7575 20.9701L18.4411 20.1411L16.8321 22.5547C16.6315 22.8555 16.2843 23.0246 15.9239 22.9971C15.5634 22.9696 15.2459 22.7497 15.0934 22.4219L11.8184 15.3849C11.5853 14.8842 11.8023 14.2894 12.3031 14.0564C12.8038 13.8233 13.3986 14.0403 13.6316 14.5411L16.1555 19.964L17.168 18.4453C17.4024 18.0937 17.8325 17.9274 18.2425 18.0299L20.1245 18.5004L16.98 12.26C16.7314 11.7668 16.9298 11.1655 17.423 10.917Z" fill="#1D2939"/>
<path fill-rule="evenodd" clip-rule="evenodd" d="M6.577 10.917C7.0702 11.1655 7.26855 11.7668 7.02002 12.26L3.87546 18.5004L5.75746 18.0299C6.16745 17.9274 6.59762 18.0937 6.83204 18.4453L7.84453 19.964L10.3684 14.5411C10.6014 14.0403 11.1962 13.8233 11.6969 14.0564C12.1976 14.2894 12.4146 14.8842 12.1816 15.3849L8.90662 22.4219C8.75409 22.7497 8.43657 22.9696 8.07613 22.9971C7.71569 23.0246 7.36846 22.8555 7.16794 22.5547L5.55885 20.1411L2.24253 20.9701C1.86311 21.065 1.46322 20.93 1.21898 20.6245C0.974734 20.3191 0.930973 19.8993 1.10697 19.55L5.23397 11.36C5.4825 10.8668 6.08379 10.6684 6.577 10.917Z" fill="#1D2939"/>
<path fill-rule="evenodd" clip-rule="evenodd" d="M12 2C8.68629 2 6 4.68629 6 8C6 11.3137 8.68629 14 12 14C15.3137 14 18 11.3137 18 8C18 4.68629 15.3137 2 12 2ZM4 8C4 3.58172 7.58172 0 12 0C16.4183 0 20 3.58172 20 8C20 12.4183 16.4183 16 12 16C7.58172 16 4 12.4183 4 8Z" fill="#1D2939"/>
<path fill-rule="evenodd" clip-rule="evenodd" d="M12 7C11.4477 7 11 7.44772 11 8C11 8.55228 11.4477 9 12 9C12.5523 9 13 8.55228 13 8C13 7.44772 12.5523 7 12 7ZM9 8C9 6.34315 10.3431 5 12 5C13.6569 5 15 6.34315 15 8C15 9.65685 13.6569 11 12 11C10.3431 11 9 9.65685 9 8Z" fill="#1D2939"/>
</svg>
