<svg width="24" height="24" viewBox="0 0 24 24" fill="none" xmlns="http://www.w3.org/2000/svg">
<path fill-rule="evenodd" clip-rule="evenodd" d="M10 4C10 3.44772 10.4477 3 11 3H21C22.6573 3 24 4.34272 24 6V14C24 15.6573 22.6573 17 21 17H10.362L4.64018 21.7682C4.3421 22.0166 3.92723 22.0702 3.57584 21.9056C3.22446 21.741 3 21.388 3 21V11C3 10.4477 3.44772 10 4 10C4.55228 10 5 10.4477 5 11V18.865L9.35982 15.2318C9.53953 15.082 9.76606 15 10 15H21C21.5527 15 22 14.5527 22 14V6C22 5.44728 21.5527 5 21 5H11C10.4477 5 10 4.55228 10 4Z" fill="#1D2939"/>
<path fill-rule="evenodd" clip-rule="evenodd" d="M4 0C4.55228 0 5 0.447715 5 1V7C5 7.55228 4.55228 8 4 8C3.44772 8 3 7.55228 3 7V1C3 0.447715 3.44772 0 4 0Z" fill="#1D2939"/>
<path fill-rule="evenodd" clip-rule="evenodd" d="M0 4C0 3.44772 0.447715 3 1 3H7C7.55228 3 8 3.44772 8 4C8 4.55228 7.55228 5 7 5H1C0.447715 5 0 4.55228 0 4Z" fill="#1D2939"/>
</svg>
