<svg width="24" height="24" viewBox="0 0 24 24" fill="none" xmlns="http://www.w3.org/2000/svg">
<path d="M8.81437 21.7283C8.628 21.849 8.42138 21.9094 8.19375 21.9094C7.86975 21.9094 7.61963 21.8044 7.44375 21.594C7.26788 21.3836 7.18013 21.099 7.18013 20.7405V18.6818H6.88013C6.03188 18.6818 5.31975 18.5318 4.74375 18.2318C4.16775 17.9318 3.7335 17.4938 3.44025 16.9178C3.14662 16.3418 3 15.6364 3 14.802V8.78063C3 7.94625 3.14662 7.24088 3.4395 6.66488C3.73275 6.08888 4.167 5.65088 4.743 5.35088C5.319 5.05088 6.03113 4.90088 6.87937 4.90088H17.1525C18.0008 4.90088 18.7129 5.05088 19.2889 5.35088C19.8649 5.65088 20.2991 6.08888 20.5924 6.66488C20.8856 7.24088 21.0319 7.94588 21.0319 8.78063V14.8016C21.0319 15.636 20.8853 16.3414 20.5924 16.9174C20.2991 17.4934 19.8649 17.9314 19.2889 18.2314C18.7129 18.5314 18.0008 18.6814 17.1525 18.6814H12.2902L9.5175 21.1643C9.23513 21.4196 9.00038 21.6075 8.81437 21.7283ZM7.914 9.62925H16.0973C16.3916 9.62925 16.6144 9.39038 16.6144 9.10163C16.6144 8.81213 16.3905 8.5845 16.0973 8.5845H7.914C7.6245 8.5845 7.39688 8.80838 7.39688 9.10163C7.39688 9.39113 7.62075 9.62925 7.914 9.62925ZM7.914 12.2674H16.0973C16.3916 12.2674 16.6144 12.0285 16.6144 11.7398C16.6144 11.4499 16.3905 11.2121 16.0973 11.2121H7.914C7.61963 11.2121 7.39688 11.451 7.39688 11.7398C7.39688 12.0293 7.62075 12.2674 7.914 12.2674ZM7.914 14.9055H13.2113C13.5008 14.9055 13.7284 14.6816 13.7284 14.3884C13.7284 14.1701 13.5739 13.8503 13.2113 13.8503H7.914C7.55213 13.8503 7.39688 14.1664 7.39688 14.3884C7.39688 14.6775 7.62075 14.9055 7.914 14.9055Z" fill="#2A64E9"/>
</svg>
