<svg width="16" height="16" viewBox="0 0 16 16" fill="none" xmlns="http://www.w3.org/2000/svg">
<g clip-path="url(#clip0_193_1978)">
<path fill-rule="evenodd" clip-rule="evenodd" d="M16 14.6667C16 15.0349 15.7015 15.3333 15.3333 15.3333L0.666666 15.3333C0.298477 15.3333 0 15.0349 0 14.6667L5.38755e-10 3.33334C5.55286e-10 2.96515 0.298477 2.66668 0.666666 2.66668L15.3333 2.66668C15.7015 2.66668 16 2.96515 16 3.33334L16 14.6667ZM14.6667 14L14.6667 4.00001L1.33333 4.00001L1.33333 14L14.6667 14Z" fill="#1D2939"/>
<path fill-rule="evenodd" clip-rule="evenodd" d="M2 1.33334C2 0.965149 2.29848 0.666672 2.66667 0.666672H5.33333C5.70152 0.666672 6 0.965149 6 1.33334C6 1.70153 5.70152 2.00001 5.33333 2.00001H2.66667C2.29848 2.00001 2 1.70153 2 1.33334Z" fill="#1D2939"/>
<path fill-rule="evenodd" clip-rule="evenodd" d="M10.0003 7.33333C8.89576 7.33333 8.00033 8.22876 8.00033 9.33333C8.00033 10.4379 8.89576 11.3333 10.0003 11.3333C11.1049 11.3333 12.0003 10.4379 12.0003 9.33333C12.0003 8.22876 11.1049 7.33333 10.0003 7.33333ZM6.66699 9.33333C6.66699 7.49238 8.15938 6 10.0003 6C11.8413 6 13.3337 7.49238 13.3337 9.33333C13.3337 11.1743 11.8413 12.6667 10.0003 12.6667C8.15938 12.6667 6.66699 11.1743 6.66699 9.33333Z" fill="#1D2939"/>
<path d="M3.99967 7.33333C4.36786 7.33333 4.66634 7.03486 4.66634 6.66667C4.66634 6.29848 4.36786 6 3.99967 6C3.63148 6 3.33301 6.29848 3.33301 6.66667C3.33301 7.03486 3.63148 7.33333 3.99967 7.33333Z" fill="#1D2939"/>
</g>
<defs>
<clipPath id="clip0_193_1978">
<rect width="16" height="16" fill="white"/>
</clipPath>
</defs>
</svg>
