<svg width="128" height="128" viewBox="0 0 128 128" fill="none" xmlns="http://www.w3.org/2000/svg">
<g clip-path="url(#clip0_753_860)">
<path d="M85.5534 88.2444L39.7523 42.4433C37.3413 40.0351 33.2696 40.744 31.8158 43.8254L0.46979 110.335C-0.415722 112.214 -0.0267589 114.446 1.44358 115.916L12.0835 126.553C13.5511 128.023 15.7828 128.412 17.6614 127.527L84.1713 96.1809C87.2527 94.7271 87.9616 90.6554 85.5534 88.2444Z" fill="#2A64E9"/>
<path d="M42.2212 44.9142C42.8 45.4935 42.9523 46.3727 42.6 47.1117C41.7779 48.8364 11.5042 113.094 11.5042 113.094C10.6187 114.973 11.0077 117.204 12.478 118.675L18.2065 124.401C19.1563 125.351 18.8766 126.955 17.6614 127.527C15.7825 128.412 13.5511 128.023 12.0835 126.553L1.44358 115.916C-0.0267589 114.446 -0.415722 112.214 0.46979 110.335L31.8158 43.8254C33.2696 40.744 37.3413 40.0351 39.7523 42.4433L42.2212 44.9142Z" fill="#E0EAFF"/>
<path d="M41.2199 5.09183C42.2957 12.5897 37.2447 19.26 32.7951 20.2586C28.4089 21.2407 20.9662 17.4062 18.729 10.1346C16.7069 3.55804 25.6779 -0.648825 29.4213 5.15803C30.3289 -1.67778 40.2406 -1.7302 41.2199 5.09183Z" fill="#2254C7"/>
<path d="M123.688 2.65323C129.655 9.63525 128.811 19.7483 124.902 23.66C121.048 27.5138 110.933 28.4158 103.92 22.4214C97.5809 16.9952 104.119 6.96216 111.724 10.4794C108.215 2.89047 118.254 -3.69708 123.688 2.65323Z" fill="#2254C7"/>
<path d="M117.815 91.7396C122.886 86.9699 130.673 93.2568 127.084 99.2236C123.139 105.778 114.927 107.775 110.808 105.715C106.75 103.687 103.371 95.9326 106.262 88.8127C108.877 82.3741 118.59 84.8044 117.815 91.7396Z" fill="#2254C7"/>
<path d="M62.3177 106.479L26.9055 123.171L12.0967 108.362C11.4016 107.667 11.894 106.479 12.8769 106.479H62.3177Z" fill="#8CAFFF"/>
<path d="M62.4059 65.0997L84.1989 86.8927H11.518L21.791 65.0997H62.4059Z" fill="#8CAFFF"/>
<path d="M57.7472 13.622C56.7241 13.622 55.8065 12.9064 55.5892 11.8656C55.4212 11.0612 55.2231 10.2664 54.9836 9.43607C54.6457 8.26505 55.3213 7.04161 56.4923 6.70395C57.6623 6.36575 58.8868 7.04133 59.2245 8.21263C59.4948 9.15001 59.7191 10.0499 59.9097 10.9638C60.1971 12.339 59.1442 13.622 57.7472 13.622Z" fill="#8CAFFF"/>
<path d="M52.4124 41.1001C50.6775 41.1001 49.5884 39.1437 50.582 37.6632C53.3881 33.4823 55.2885 28.7022 56.0212 23.3527C56.1861 22.1452 57.2965 21.2989 58.5067 21.4652C59.7141 21.6302 60.5591 22.743 60.3941 23.9507C59.5944 29.8075 57.5185 35.2486 54.2471 40.1228C53.8209 40.7575 53.1232 41.1001 52.4124 41.1001Z" fill="#8CAFFF"/>
<path d="M76.5463 28.9019C74.9981 28.9019 73.9239 27.3386 74.4922 25.8889C77.2671 18.8101 78.5054 11.0446 78.0729 3.43197C78.0039 2.21515 78.9344 1.17294 80.1512 1.1037C81.368 1.03529 82.4102 1.96522 82.4795 3.18204C82.9473 11.4245 81.6064 19.8335 78.6011 27.5C78.2605 28.3703 77.4276 28.9019 76.5463 28.9019Z" fill="#8CAFFF"/>
<path d="M64.0004 47.9964C62.0482 47.9964 61.0435 45.6151 62.4457 44.2231C64.8404 41.8461 67.0249 39.2171 68.9378 36.4091C69.6241 35.4014 70.9979 35.1418 72.0039 35.8279C73.0111 36.514 73.2715 37.8869 72.5852 38.8941C70.514 41.9343 68.1488 44.7809 65.5549 47.3558C65.1248 47.7831 64.5623 47.9964 64.0004 47.9964Z" fill="#8CAFFF"/>
<path d="M119.174 73.1002C118.552 73.1002 118.351 72.8715 116.131 72.4075C114.938 72.1587 114.173 70.9893 114.422 69.7962C114.671 68.6034 115.841 67.8376 117.033 68.087C117.947 68.2776 118.847 68.5019 119.785 68.7722C120.956 69.1102 121.631 70.3333 121.293 71.5044C121.014 72.4713 120.132 73.1002 119.174 73.1002Z" fill="#8CAFFF"/>
<path d="M89.1059 77.7896C86.9365 77.7896 86.0648 74.9645 87.8739 73.7499C92.7429 70.4817 98.1823 68.4037 104.046 67.6029C105.256 67.4365 106.366 68.2831 106.531 69.4903C106.697 70.698 105.851 71.8108 104.644 71.9758C99.4689 72.6845 94.6634 74.5088 90.3335 77.4149C89.9561 77.6682 89.5285 77.7896 89.1059 77.7896Z" fill="#8CAFFF"/>
<path d="M99.2476 52.2557C98.803 51.1208 99.3621 49.8402 100.497 49.3955C108.163 46.3906 116.574 45.0496 124.815 45.5172C126.031 45.5865 126.962 46.6287 126.893 47.8455C126.824 49.0623 125.787 49.9955 124.565 49.9238C116.95 49.491 109.186 50.7299 102.108 53.5045C100.978 53.9478 99.694 53.3947 99.2476 52.2557Z" fill="#8CAFFF"/>
<path d="M82.2072 66.2032C80.2632 66.2032 79.2541 63.8388 80.6409 62.4415C83.2157 59.8476 86.0623 57.4821 89.1026 55.4112C90.1089 54.7252 91.4822 54.9848 92.1688 55.9925C92.8549 56.9996 92.5947 58.3726 91.5875 59.0587C88.7796 60.9718 86.1506 63.1563 83.7735 65.5508C83.3424 65.9855 82.7746 66.2032 82.2072 66.2032Z" fill="#8CAFFF"/>
<path d="M84.8533 45.9804C83.117 45.9804 82.0362 44.0303 83.0166 42.5531C85.6996 38.509 85.2861 35.5904 88.3815 31.0323C89.5175 29.3598 90.8913 27.8227 92.464 26.4641C93.3867 25.6671 94.7804 25.7692 95.5768 26.6917C96.3735 27.6142 96.2717 29.0078 95.3492 29.8045C94.0681 30.911 92.9525 32.1581 92.0331 33.5121C89.4132 37.3689 89.749 40.3912 86.6944 44.9928C86.2698 45.6334 85.5683 45.9804 84.8533 45.9804Z" fill="#8CAFFF"/>
<path d="M74.223 52.6788C73.6177 51.6212 73.9844 50.2728 75.0423 49.6673C75.4674 49.424 75.8795 49.1751 76.2668 48.9277C77.2941 48.272 78.6588 48.5735 79.3145 49.6008C79.9702 50.6281 79.6687 51.9928 78.6414 52.6485C78.1945 52.9335 77.7212 53.2192 77.2345 53.4979C76.1805 54.1009 74.8304 53.7406 74.223 52.6788Z" fill="#8CAFFF"/>
<path d="M31.0757 65.0997C32.4939 65.0997 33.4298 66.5753 32.8257 67.8583L24.375 85.7832C24.0556 86.4604 23.3742 86.8927 22.6252 86.8927H11.518L21.791 65.0997H31.0757Z" fill="#F2BD42"/>
<path d="M14.2504 107.266L13.5436 108.765C13.3809 109.11 12.9246 109.19 12.6545 108.92L12.097 108.362C11.4019 107.667 11.8943 106.479 12.8772 106.479H13.7514C14.156 106.479 14.4231 106.9 14.2504 107.266Z" fill="#F2BD42"/>
<path d="M23.9692 13.1486C24.6374 14.9376 22.2509 16.2319 21.0926 14.7138C20.0848 13.3933 19.26 11.8606 18.729 10.1345C17.2369 5.28382 21.727 1.72191 25.6876 2.51749C27.1568 2.81266 27.5427 4.76382 26.2614 5.54147C24.1422 6.82726 22.7709 9.33731 23.6947 12.3414C23.7789 12.6154 23.8707 12.8846 23.9692 13.1486Z" fill="#F2BD42"/>
<path d="M36.9981 3.14013C36.3945 3.52054 35.8563 4.01736 35.4235 4.63032C34.7071 5.64521 33.3245 5.90811 32.2381 5.30508C30.3659 4.26564 30.418 2.01793 31.8828 1.03007C33.2067 0.137113 34.8737 -0.173782 36.4359 0.0993198C37.9319 0.360559 38.2831 2.33048 36.9981 3.14013Z" fill="#F2BD42"/>
<path d="M113.915 9.75001C112.12 9.78891 110.923 8.41623 111.008 6.92769C111.183 3.85626 113.429 1.35696 116.181 0.458485C117.727 -0.0460634 119.029 1.74979 118.024 3.02868C117.134 4.16219 116.569 5.55638 116.518 7.08686C116.47 8.5205 115.349 9.71884 113.915 9.75001Z" fill="#F2BD42"/>
<path d="M110.163 23.0089C111.438 23.9869 110.29 25.9811 108.8 25.3786C107.092 24.6876 105.434 23.7151 103.92 22.4214C98.7505 17.9971 102.143 10.5103 107.695 9.80323C108.97 9.64075 109.74 11.1607 108.874 12.1108C106.383 14.8446 105.867 19.3646 109.437 22.4214C109.676 22.6252 109.918 22.8211 110.163 23.0089Z" fill="#F2BD42"/>
<path d="M112.186 104.179C112.761 105.072 111.82 106.222 110.808 105.715C106.75 103.687 103.371 95.9326 106.262 88.8127C107.624 85.4602 110.91 84.5129 113.637 85.3531C114.551 85.6348 114.634 86.8999 113.777 87.3255C112.593 87.9134 111.573 88.9415 110.952 90.4681C108.927 95.4557 109.979 100.756 112.186 104.179Z" fill="#F2BD42"/>
</g>
<defs>
<clipPath id="clip0_753_860">
<rect width="128" height="128" fill="white"/>
</clipPath>
</defs>
</svg>
