<svg width="24" height="24" viewBox="0 0 24 24" fill="none" xmlns="http://www.w3.org/2000/svg">
<path fill-rule="evenodd" clip-rule="evenodd" d="M7.5679 1.56789C7.95568 1.18011 8.47276 1 9 1H16C16.5273 1 17.0443 1.18011 17.4321 1.56789C17.8199 1.95567 18 2.47275 18 3V22C18 22.5523 17.5523 23 17 23C16.4477 23 16 22.5523 16 22V3H9V9.9C9 10.3045 8.75636 10.6691 8.38269 10.8239C8.00901 10.9787 7.57889 10.8931 7.2929 10.6071L6.3929 9.70711C6.18342 9.49763 5.91659 9.49763 5.70711 9.70711C5.49763 9.91658 5.49763 10.2834 5.70711 10.4929L8.70711 13.4929C8.89465 13.6804 9 13.9348 9 14.2V20C9 20.5523 8.55229 21 8 21C7.44772 21 7 20.5523 7 20V14.6142L4.2929 11.9071C3.30237 10.9166 3.30237 9.28342 4.2929 8.29289C5.04149 7.5443 6.10001 7.36146 7 7.74437V3C7 2.47275 7.18012 1.95567 7.5679 1.56789Z" fill="#1D2939"/>
<path fill-rule="evenodd" clip-rule="evenodd" d="M11 1C11.5523 1 12 1.44772 12 2V7C12 7.55228 11.5523 8 11 8C10.4477 8 10 7.55228 10 7V2C10 1.44772 10.4477 1 11 1Z" fill="#1D2939"/>
<path fill-rule="evenodd" clip-rule="evenodd" d="M14 1C14.5523 1 15 1.44772 15 2V7C15 7.55228 14.5523 8 14 8C13.4477 8 13 7.55228 13 7V2C13 1.44772 13.4477 1 14 1Z" fill="#1D2939"/>
<path fill-rule="evenodd" clip-rule="evenodd" d="M13 19C11.7477 19 10.6739 19.7701 10.2253 20.869C10.1036 21.1669 9.84606 21.3881 9.53316 21.4633C9.22026 21.5385 8.89028 21.4586 8.64653 21.2485C8.46131 21.0888 8.23816 21 8 21C7.44771 21 7 21.4477 7 22C7 22.5523 6.55228 23 6 23H1C0.447715 23 0 22.5523 0 22C0 21.4477 0.447715 21 1 21H5.1707C5.58254 19.8348 6.6938 19 8 19C8.31701 19 8.61979 19.0504 8.90248 19.1415C9.80394 17.8493 11.2998 17 13 17C15.419 17 17.4367 18.7177 17.9 21H23C23.5523 21 24 21.4477 24 22C24 22.5523 23.5523 23 23 23H17C16.4477 23 16 22.5523 16 22C16 20.3431 14.6569 19 13 19Z" fill="#1D2939"/>
</svg>
