<svg width="22" height="22" viewBox="0 0 22 22" fill="none" xmlns="http://www.w3.org/2000/svg">
<path d="M21 20H1C0.447 20 0 20.448 0 21C0 21.552 0.447 22 1 22H21C21.553 22 22 21.552 22 21C22 20.448 21.553 20 21 20Z" fill="#58C373"/>
<path d="M2.9999 18C3.1249 18 3.2509 17.977 3.3709 17.929L8.3709 15.929C8.4969 15.879 8.6109 15.803 8.7069 15.707L19.4139 4.99998C19.7919 4.62198 19.9999 4.11998 19.9999 3.58598C19.9999 3.05198 19.7919 2.54898 19.4139 2.17198L17.8279 0.585977C17.0489 -0.194023 15.7789 -0.194023 14.9999 0.585977L4.2929 11.293C4.1969 11.389 4.1219 11.503 4.0709 11.628L2.0709 16.628C1.9229 17 2.0089 17.424 2.2929 17.707C2.4839 17.898 2.7399 18 2.9999 18Z" fill="#58C373"/>
</svg>
