<svg width="48" height="48" viewBox="0 0 48 48" fill="none" xmlns="http://www.w3.org/2000/svg">
<path d="M24 47C36.7025 47 47 36.7025 47 24C47 11.2975 36.7025 1 24 1C11.2975 1 1 11.2975 1 24C1 36.7025 11.2975 47 24 47Z" fill="#1877F2"/>
<path d="M32.953 30.648L33.973 24H27.594V19.686C27.594 17.867 28.485 16.094 31.342 16.094H34.242V10.434C32.5393 10.1585 30.8187 10.0081 29.094 9.98401C23.84 9.98401 20.406 13.168 20.406 18.933V24H14.566V30.648H20.406V46.72C22.7875 47.0933 25.2126 47.0933 27.594 46.72V30.648H32.953Z" fill="white"/>
</svg>
