<svg width="24" height="24" viewBox="0 0 24 24" fill="none" xmlns="http://www.w3.org/2000/svg">
<path fill-rule="evenodd" clip-rule="evenodd" d="M20.5 5C20.3674 5 20.2402 5.05268 20.1464 5.14645C20.0527 5.24022 20 5.36739 20 5.5C20 6.05228 19.5523 6.5 19 6.5C18.4477 6.5 18 6.05228 18 5.5C18 4.83696 18.2634 4.20107 18.7322 3.73223C19.2011 3.26339 19.837 3 20.5 3C21.163 3 21.7989 3.26339 22.2678 3.73223C22.7366 4.20107 23 4.83696 23 5.5V17.9501L23.495 22.9005C23.5231 23.1816 23.431 23.4615 23.2415 23.671C23.0519 23.8805 22.7825 24 22.5 24H19C18.4477 24 18 23.5523 18 23C18 22.4477 18.4477 22 19 22H21.395L21.005 18.0995C21.0017 18.0664 21 18.0332 21 18V5.5C21 5.36739 20.9473 5.24022 20.8536 5.14645C20.7598 5.05268 20.6326 5 20.5 5Z" fill="#1D2939"/>
<path fill-rule="evenodd" clip-rule="evenodd" d="M7.5 2C7.36739 2 7.24021 2.05268 7.14645 2.14645C7.05268 2.24021 7 2.36739 7 2.5V9C7 9.55229 6.55228 10 6 10C5.44772 10 5 9.55229 5 9V2.5C5 1.83696 5.26339 1.20107 5.73223 0.732233C6.20107 0.263392 6.83696 0 7.5 0C8.16304 0 8.79893 0.263392 9.26777 0.732233C9.73661 1.20107 10 1.83696 10 2.5V6C10 6.55228 9.55228 7 9 7C8.44772 7 8 6.55228 8 6V2.5C8 2.36739 7.94732 2.24021 7.85355 2.14645C7.75979 2.05268 7.63261 2 7.5 2Z" fill="#1D2939"/>
<path fill-rule="evenodd" clip-rule="evenodd" d="M10.5 3C10.3674 3 10.2402 3.05268 10.1464 3.14645C10.0527 3.24021 10 3.36739 10 3.5V9C10 9.55228 9.55228 10 9 10C8.44772 10 8 9.55228 8 9V3.5C8 2.83696 8.26339 2.20107 8.73223 1.73223C9.20107 1.26339 9.83696 1 10.5 1C11.163 1 11.7989 1.26339 12.2678 1.73223C12.7366 2.20107 13 2.83696 13 3.5V9C13 9.55228 12.5523 10 12 10C11.4477 10 11 9.55228 11 9V3.5C11 3.36739 10.9473 3.24021 10.8536 3.14645C10.7598 3.05268 10.6326 3 10.5 3Z" fill="#1D2939"/>
<path fill-rule="evenodd" clip-rule="evenodd" d="M16.8486 1.08848C17.3447 0.952903 17.8706 0.974025 18.3543 1.14895C18.8379 1.32388 19.2557 1.64405 19.5503 2.06562C19.8445 2.48659 20.0015 2.98812 20 3.50167C20 3.50239 20 3.50312 20 3.50384L19 3.5H20V3.50167V9C20 9.55229 19.5523 10 19 10C18.4477 10 18 9.55229 18 9V3.49616C18.0004 3.39429 17.9693 3.29479 17.9109 3.21129C17.8526 3.12778 17.7698 3.06437 17.674 3.02972C17.5782 2.99507 17.4741 2.99089 17.3758 3.01774C17.2775 3.04459 17.19 3.10117 17.1251 3.17973C16.7734 3.60559 16.1431 3.66575 15.7173 3.31409C15.2914 2.96244 15.2313 2.33214 15.5829 1.90628C15.9104 1.50969 16.3525 1.22405 16.8486 1.08848Z" fill="#1D2939"/>
<path fill-rule="evenodd" clip-rule="evenodd" d="M2.73224 2.73223C3.20108 2.26339 3.83696 2 4.5 2C5.16305 2 5.79893 2.26339 6.26777 2.73223C6.73661 3.20107 7 3.83696 7 4.5V7C7 7.55228 6.55229 8 6 8C5.44772 8 5 7.55228 5 7V4.5C5 4.36739 4.94733 4.24021 4.85356 4.14645C4.75979 4.05268 4.63261 4 4.5 4C4.3674 4 4.24022 4.05268 4.14645 4.14645C4.05268 4.24021 4 4.36739 4 4.5V18C4 18.0332 3.99835 18.0664 3.99504 18.0995L3.60499 22H14.395L14.005 18.0995C14.0017 18.0664 14 18.0332 14 18V5.5C14 5.36739 13.9473 5.24021 13.8536 5.14645C13.7598 5.05268 13.6326 5 13.5 5C13.3674 5 13.2402 5.05268 13.1465 5.14645C13.0527 5.24021 13 5.36739 13 5.5V8C13 8.55228 12.5523 9 12 9C11.4477 9 11 8.55228 11 8V5.5C11 4.83696 11.2634 4.20107 11.7322 3.73223C12.2011 3.26339 12.837 3 13.5 3C14.163 3 14.7989 3.26339 15.2678 3.73223C15.7366 4.20107 16 4.83696 16 5.5V17.9501L16.495 22.9005C16.5232 23.1816 16.431 23.4615 16.2415 23.671C16.0519 23.8805 15.7825 24 15.5 24H2.5C2.21748 24 1.94813 23.8805 1.75855 23.671C1.56897 23.4615 1.47685 23.1816 1.50497 22.9005L2 17.9501V4.5C2 3.83696 2.2634 3.20107 2.73224 2.73223Z" fill="#1D2939"/>
<path fill-rule="evenodd" clip-rule="evenodd" d="M9 18C9 17.4477 9.44772 17 10 17H15C15.5523 17 16 17.4477 16 18C16 18.5523 15.5523 19 15 19H10C9.44772 19 9 18.5523 9 18Z" fill="#1D2939"/>
<path fill-rule="evenodd" clip-rule="evenodd" d="M6.53792 11.1898C6.84134 11.064 7.16656 10.9993 7.495 10.9993C7.82344 10.9993 8.14866 11.064 8.45208 11.1898C8.7555 11.3155 9.03117 11.4998 9.26333 11.7321L9.26658 11.7354C9.69682 12.1699 9.95175 12.7477 9.98262 13.3584C10.0124 13.9482 9.83126 14.5285 9.47276 14.996L7.84288 17.5491C7.5457 18.0146 6.92742 18.1511 6.46191 17.8539C5.99639 17.5567 5.85993 16.9384 6.15712 16.4729L7.81312 13.8789C7.83308 13.8476 7.85477 13.8175 7.87808 13.7886C7.95307 13.6958 7.9912 13.5786 7.98517 13.4594C7.97919 13.341 7.93003 13.2289 7.84704 13.1443C7.80094 13.0986 7.74639 13.0623 7.68642 13.0374C7.62573 13.0123 7.56069 12.9993 7.495 12.9993C7.42931 12.9993 7.36427 13.0123 7.30358 13.0374C7.2429 13.0626 7.18777 13.0994 7.14133 13.1459L3.97774 16.3141C3.97228 16.3198 3.96673 16.3255 3.96111 16.3311L3.70762 16.5846C3.3172 16.975 2.68372 16.9756 2.29315 16.5854C1.90258 16.1951 1.90224 15.5621 2.29238 15.1714L5.72638 11.7324C5.95855 11.5001 6.2345 11.3155 6.53792 11.1898Z" fill="#1D2939"/>
<path fill-rule="evenodd" clip-rule="evenodd" d="M17 18C17 17.4477 17.4477 17 18 17H22C22.5523 17 23 17.4477 23 18C23 18.5523 22.5523 19 22 19H18C17.4477 19 17 18.5523 17 18Z" fill="#1D2939"/>
</svg>
