<svg width="24" height="24" viewBox="0 0 24 24" fill="none" xmlns="http://www.w3.org/2000/svg">
<g clip-path="url(#clip0_681_580)">
<path fill-rule="evenodd" clip-rule="evenodd" d="M12 5.767C12.3807 5.767 12.7283 5.98312 12.8968 6.32449L14.2091 8.98399L17.1438 9.41039C17.5205 9.46512 17.8334 9.72896 17.951 10.091C18.0687 10.453 17.9706 10.8504 17.698 11.1161L15.5745 13.1861L16.0756 16.109C16.1399 16.4842 15.9857 16.8633 15.6777 17.0871C15.3697 17.3108 14.9615 17.3402 14.6245 17.1631L12 15.7828L9.37545 17.1631C9.03854 17.3402 8.63026 17.3108 8.32228 17.0871C8.01431 16.8633 7.86005 16.4842 7.92438 16.109L8.42554 13.1861L6.30197 11.1161C6.02941 10.8504 5.93132 10.453 6.04895 10.091C6.16658 9.72896 6.47953 9.46512 6.85621 9.41039L9.7909 8.98399L11.1032 6.32449C11.2717 5.98312 11.6193 5.767 12 5.767ZM12 9.02683L11.3518 10.3405C11.2061 10.6357 10.9245 10.8403 10.5988 10.8876L9.14893 11.0983L10.198 12.1209C10.4337 12.3507 10.5412 12.6816 10.4856 13.006L10.2381 14.4497L11.5345 13.7679C11.8259 13.6147 12.1741 13.6147 12.4654 13.7679L13.7619 14.4497L13.5144 13.006C13.4588 12.6816 13.5663 12.3507 13.802 12.1209L14.8511 11.0983L13.4012 10.8876C13.0755 10.8403 12.7939 10.6357 12.6482 10.3405L12 9.02683Z" fill="#1D2939"/>
<path fill-rule="evenodd" clip-rule="evenodd" d="M12 2C6.47715 2 2 6.47715 2 12C2 17.5228 6.47715 22 12 22C17.5228 22 22 17.5228 22 12C22 6.47715 17.5228 2 12 2ZM0 12C0 5.37258 5.37258 0 12 0C18.6274 0 24 5.37258 24 12C24 18.6274 18.6274 24 12 24C5.37258 24 0 18.6274 0 12Z" fill="#1D2939"/>
<path d="M12 20C12.5523 20 13 19.5523 13 19C13 18.4477 12.5523 18 12 18C11.4477 18 11 18.4477 11 19C11 19.5523 11.4477 20 12 20Z" fill="#1D2939"/>
<path d="M18.657 15.163C19.2093 15.163 19.657 14.7153 19.657 14.163C19.657 13.6107 19.2093 13.163 18.657 13.163C18.1047 13.163 17.657 13.6107 17.657 14.163C17.657 14.7153 18.1047 15.163 18.657 15.163Z" fill="#1D2939"/>
<path d="M16.114 7.337C16.6663 7.337 17.114 6.88928 17.114 6.337C17.114 5.78471 16.6663 5.337 16.114 5.337C15.5617 5.337 15.114 5.78471 15.114 6.337C15.114 6.88928 15.5617 7.337 16.114 7.337Z" fill="#1D2939"/>
<path d="M7.886 7.337C8.43829 7.337 8.886 6.88928 8.886 6.337C8.886 5.78471 8.43829 5.337 7.886 5.337C7.33372 5.337 6.886 5.78471 6.886 6.337C6.886 6.88928 7.33372 7.337 7.886 7.337Z" fill="#1D2939"/>
<path d="M5.343 15.163C5.89529 15.163 6.343 14.7153 6.343 14.163C6.343 13.6107 5.89529 13.163 5.343 13.163C4.79072 13.163 4.343 13.6107 4.343 14.163C4.343 14.7153 4.79072 15.163 5.343 15.163Z" fill="#1D2939"/>
</g>
<defs>
<clipPath id="clip0_681_580">
<rect width="24" height="24" fill="white"/>
</clipPath>
</defs>
</svg>
