<svg width="48" height="48" viewBox="0 0 48 48" fill="none" xmlns="http://www.w3.org/2000/svg">
<path d="M24 11C27.0545 10.9981 30.0112 12.0775 32.346 14.047L38.886 7.819C36.3755 5.50409 33.3599 3.80619 30.0787 2.86006C26.7975 1.91393 23.3409 1.7456 19.9832 2.36844C16.6256 2.99128 13.4594 4.38814 10.7358 6.44817C8.0122 8.5082 5.80625 11.1747 4.293 14.236L11.666 19.919C12.5259 17.3261 14.1798 15.0694 16.3934 13.4687C18.607 11.868 21.2682 11.0043 24 11Z" fill="#D94F3D"/>
<path d="M11 24C11.0019 22.6128 11.2267 21.2348 11.666 19.919L4.29301 14.236C2.78486 17.2699 2.00002 20.6119 2.00002 24C2.00002 27.3881 2.78486 30.7301 4.29301 33.764L11.666 28.081C11.2267 26.7651 11.0019 25.3872 11 24Z" fill="#F2C042"/>
<path d="M45.1 20H24.1V29H36C35.2921 31.5448 33.6702 33.7389 31.445 35.162L38.761 40.802C43.436 36.606 46.183 29.783 45.1 20Z" fill="#5085ED"/>
<path d="M31.442 35.162C29.181 36.4561 26.6035 37.0927 24 37C21.2682 36.9957 18.607 36.132 16.3934 34.5313C14.1798 32.9306 12.5259 30.6739 11.666 28.081L4.293 33.764C6.11414 37.4351 8.92345 40.5253 12.4049 42.6869C15.8864 44.8485 19.902 45.9959 24 46C29.3924 46.1465 34.6485 44.2945 38.758 40.8L31.442 35.162Z" fill="#57A75C"/>
</svg>
