<svg width="24" height="24" viewBox="0 0 24 24" fill="none" xmlns="http://www.w3.org/2000/svg">
<path fill-rule="evenodd" clip-rule="evenodd" d="M0 15C0 14.4477 0.447715 14 1 14H23C23.5523 14 24 14.4477 24 15C24 15.5523 23.5523 16 23 16H1C0.447715 16 0 15.5523 0 15Z" fill="#1D2939"/>
<path fill-rule="evenodd" clip-rule="evenodd" d="M7.26079 2.88381C7.61435 2.45953 8.24492 2.40222 8.66919 2.75579L17.3621 10H19C20.3261 10 21.5979 10.5268 22.5355 11.4645C23.4732 12.4021 24 13.6739 24 15V17L24 17.003C23.9976 17.7971 23.6811 18.558 23.1196 19.1196C22.558 19.6811 21.7971 19.9976 21.003 20L21 20H3L2.99701 20C2.20289 19.9976 1.44196 19.6811 0.880428 19.1196C0.318893 18.558 0.0023762 17.7971 4.47035e-06 17.003L0 17L6.55651e-07 7.83083C0.000407398 7.48346 0.0912826 7.14218 0.263677 6.84061C0.436072 6.53903 0.684041 6.28756 0.983167 6.11095C1.28229 5.93434 1.62226 5.83868 1.96959 5.8334C2.31692 5.82812 2.65964 5.9134 2.964 6.08083C2.97142 6.08491 2.97878 6.08908 2.98609 6.09335C3.91147 6.63347 4.95255 6.94424 6.02233 6.99987C6.55952 6.99515 7.08951 6.87491 7.57628 6.64721C8.07654 6.41319 8.67178 6.62902 8.90579 7.12928C9.13981 7.62954 8.92398 8.22478 8.42372 8.45879C7.66561 8.81343 6.83918 8.99814 6.00222 9C5.98544 9.00004 5.96867 8.99965 5.95191 8.99884C4.56027 8.93184 3.20512 8.53217 2 7.8335V16.9983C2.00112 17.2636 2.10701 17.5177 2.29464 17.7054C2.48226 17.893 2.73638 17.9989 3.00168 18H20.9983C21.2636 17.9989 21.5177 17.893 21.7054 17.7054C21.893 17.5177 21.9989 17.2635 22 16.9981V15C22 14.2044 21.6839 13.4413 21.1213 12.8787C20.5587 12.3161 19.7956 12 19 12H17C16.7661 12 16.5395 11.918 16.3598 11.7682L7.38881 4.29221C6.96453 3.93865 6.90722 3.30808 7.26079 2.88381Z" fill="#1D2939"/>
</svg>
