<svg width="24" height="24" viewBox="0 0 24 24" fill="none" xmlns="http://www.w3.org/2000/svg">
<g clip-path="url(#clip0_681_579)">
<path fill-rule="evenodd" clip-rule="evenodd" d="M0 23C0 22.4477 0.447715 22 1 22H23C23.5523 22 24 22.4477 24 23C24 23.5523 23.5523 24 23 24H1C0.447715 24 0 23.5523 0 23Z" fill="#1D2939"/>
<path fill-rule="evenodd" clip-rule="evenodd" d="M5 7C4.73478 7 4.48043 7.10536 4.29289 7.29289C4.10536 7.48043 4 7.73478 4 8V20C4 20.5523 3.55228 21 3 21C2.44772 21 2 20.5523 2 20V8C2 7.20435 2.31607 6.44129 2.87868 5.87868C3.44129 5.31607 4.20435 5 5 5H19C19.7957 5 20.5587 5.31607 21.1213 5.87868C21.6839 6.44129 22 7.20435 22 8V20C22 20.5523 21.5523 21 21 21C20.4477 21 20 20.5523 20 20V8C20 7.73478 19.8946 7.48043 19.7071 7.29289C19.5196 7.10536 19.2652 7 19 7H5Z" fill="#1D2939"/>
<path fill-rule="evenodd" clip-rule="evenodd" d="M8 14C8 13.4477 8.44772 13 9 13H15C15.5523 13 16 13.4477 16 14V20C16 20.5523 15.5523 21 15 21C14.4477 21 14 20.5523 14 20V15H10V20C10 20.5523 9.55228 21 9 21C8.44772 21 8 20.5523 8 20V14Z" fill="#1D2939"/>
<path d="M13 9H11V11H13V9Z" fill="#1D2939"/>
<path d="M9 9H7V11H9V9Z" fill="#1D2939"/>
<path d="M17 9H15V11H17V9Z" fill="#1D2939"/>
<path d="M12 0L16 2L12 4V0Z" fill="#1D2939"/>
</g>
<defs>
<clipPath id="clip0_681_579">
<rect width="24" height="24" fill="white"/>
</clipPath>
</defs>
</svg>
