<svg width="24" height="24" viewBox="0 0 24 24" fill="none" xmlns="http://www.w3.org/2000/svg">
<path fill-rule="evenodd" clip-rule="evenodd" d="M11.3753 1.21913C11.7405 0.926956 12.2595 0.926956 12.6247 1.21913L22.6247 9.21913C22.8619 9.4089 23 9.69622 23 10V23C23 23.5523 22.5523 24 22 24H15C14.4477 24 14 23.5523 14 23V17H10V23C10 23.5523 9.55228 24 9 24H2C1.44772 24 1 23.5523 1 23V10C1 9.69622 1.13809 9.4089 1.3753 9.21913L11.3753 1.21913ZM3 10.4806V22H8V16C8 15.4477 8.44772 15 9 15H15C15.5523 15 16 15.4477 16 16V22H21V10.4806L12 3.28062L3 10.4806Z" fill="#1D2939"/>
</svg>
