<svg width="128" height="128" viewBox="0 0 128 128" fill="none" xmlns="http://www.w3.org/2000/svg">
<path d="M108.964 38.6197V6.62052C108.964 2.96544 105.999 0 102.344 0H25.6562C22.0011 0 19.0356 2.96544 19.0356 6.62052V38.6197L6.34632 51.0332V121.376C6.34632 125.04 9.32059 127.997 12.9668 127.997H115.033C118.701 127.997 121.654 125.015 121.654 121.376V51.0332L108.964 38.6197Z" fill="#2A64E9"/>
<path d="M108.964 59.4716L78.2976 79.8683L68.9185 69.4575C66.2896 66.539 61.7101 66.539 59.0812 69.4575L49.7022 79.8683L19.0354 59.4716V6.62052C19.0354 2.96544 22.0008 0 25.6559 0H102.344C105.999 0 108.964 2.96544 108.964 6.62052C108.964 8.46075 108.964 51.8224 108.964 59.4716Z" fill="#FFFAF0"/>
<path d="M102.344 0C106 0 108.964 2.96406 108.964 6.62052V59.4716L78.2976 79.8683L68.9185 69.4575C66.2896 66.539 61.7101 66.539 59.0812 69.4575L49.7022 79.8683L19.0354 59.4716V57.1646C19.0354 53.0533 23.2041 50.239 27.0079 51.7992C47.7201 60.2947 70.2961 56.4278 83.034 43.0334C91.8636 33.7503 95.6339 20.2367 94.4064 6.27487C94.1096 2.89868 96.7884 0 100.178 0H102.344Z" fill="#FFDC8C"/>
<path d="M121.654 51.0332V65.2728C118.028 67.6843 90.3257 86.1084 86.3194 88.7729L78.2976 79.8683C80.2741 78.5538 119.158 52.6927 121.654 51.0332Z" fill="#8CAFFF"/>
<path d="M119.814 125.953C118.611 127.213 116.912 127.997 115.033 127.997H12.9668C11.0883 127.997 9.39176 127.213 8.18627 125.955L59.0815 69.4575C61.7104 66.539 66.2896 66.539 68.9188 69.4575C69.6186 70.2349 117.526 123.414 119.814 125.953Z" fill="#B8CDFF"/>
<path d="M19.0356 38.6197V59.4716L6.34632 51.0332L19.0356 38.6197Z" fill="#F2BD42"/>
<path d="M121.654 51.0332L108.964 59.4716V38.6197L121.654 51.0332Z" fill="#F2BD42"/>
<path d="M87.9994 25.3786H40.0006C38.7819 25.3786 37.7938 24.3905 37.7938 23.1718C37.7938 21.9531 38.7819 20.965 40.0006 20.965H87.9994C89.2181 20.965 90.2062 21.9531 90.2062 23.1718C90.2062 24.3905 89.2181 25.3786 87.9994 25.3786Z" fill="#344054"/>
<path d="M69.5171 47.4471H40.0006C38.7819 47.4471 37.7938 46.459 37.7938 45.2402C37.7938 44.0215 38.7819 43.0334 40.0006 43.0334H69.5171C70.7358 43.0334 71.7239 44.0215 71.7239 45.2402C71.7239 46.459 70.7358 47.4471 69.5171 47.4471Z" fill="#344054"/>
<path d="M83.034 47.4471H79.7237C78.505 47.4471 77.5169 46.459 77.5169 45.2402C77.5169 44.0215 78.505 43.0334 79.7237 43.0334H83.034C84.2527 43.0334 85.2408 44.0215 85.2408 45.2402C85.2408 46.459 84.2527 47.4471 83.034 47.4471Z" fill="#344054"/>
<path d="M68.9185 69.4575L119.814 125.953C117.516 128.361 114.686 127.956 114.473 127.997L81.0561 90.9027C73.4229 82.4296 60.108 82.4144 52.461 90.9025L19.0467 127.997H12.9668C11.0883 127.997 9.39176 127.213 8.18627 125.955L59.0815 69.4575C61.711 66.5384 66.2888 66.5387 68.9185 69.4575Z" fill="#8CAFFF"/>
<path d="M49.7024 79.8683L45.7577 84.2461L31.1851 74.5545C24.2181 69.921 14.8978 74.9159 14.8978 83.2828V118.505L8.18627 125.955C7.04699 124.766 6.34632 123.153 6.34632 121.376V51.0332L49.7024 79.8683Z" fill="#8CAFFF"/>
</svg>
