<svg width="48" height="48" viewBox="0 0 48 48" fill="none" xmlns="http://www.w3.org/2000/svg">
<path d="M32 15V13C32 11.894 31.104 11 30 11H18C16.896 11 16 11.894 16 13V15H32Z" fill="#103DA3"/>
<path d="M46 22H31V26H48V24C48 22.895 47.104 22 46 22Z" fill="#E0EAFF"/>
<path d="M17 19H2C0.895 19 0 19.895 0 21V23H17V19Z" fill="#2254C7"/>
<path d="M32 25V14H16V22H0V38H48V25H32Z" fill="#58C373"/>
<path d="M25 24H23.35V18.828L21.729 19.292V18.062L24.849 17H25V24ZM38.654 30.844H39.406C40 30.844 40.298 30.555 40.298 29.977C40.298 29.754 40.227 29.571 40.085 29.43C39.943 29.285 39.743 29.215 39.484 29.215C39.274 29.215 39.09 29.278 38.933 29.399C38.778 29.52 38.7 29.673 38.7 29.852H37.107C37.107 29.493 37.209 29.174 37.41 28.895C37.612 28.614 37.892 28.395 38.249 28.235C38.607 28.078 39.001 28 39.43 28C40.195 28 40.797 28.172 41.235 28.52C41.673 28.864 41.892 29.34 41.892 29.946C41.892 30.239 41.801 30.516 41.619 30.776C41.438 31.036 41.175 31.247 40.828 31.411C41.194 31.54 41.48 31.739 41.687 32.005C41.896 32.273 42 32.602 42 32.992C42 33.601 41.764 34.09 41.291 34.453C40.818 34.816 40.198 35 39.43 35C38.979 35 38.561 34.914 38.174 34.746C37.789 34.574 37.496 34.34 37.298 34.039C37.099 33.738 37 33.395 37 33.012H38.602C38.602 33.223 38.688 33.403 38.858 33.555C39.028 33.707 39.238 33.785 39.486 33.785C39.766 33.785 39.99 33.706 40.157 33.553C40.325 33.399 40.408 33.201 40.408 32.961C40.408 32.617 40.321 32.375 40.147 32.231C39.975 32.09 39.735 32.016 39.43 32.016H38.655L38.654 30.844ZM11 32H6.144V30.956L8.38 28.624C8.931 28.003 9.207 27.507 9.207 27.14C9.207 26.845 9.142 26.619 9.011 26.464C8.88 26.31 8.691 26.232 8.442 26.232C8.197 26.232 7.998 26.335 7.845 26.542C7.691 26.75 7.616 27.007 7.616 27.316H6C6 26.894 6.107 26.503 6.32 26.144C6.533 25.785 6.83 25.503 7.21 25.302C7.59 25.102 8.013 25 8.48 25C9.233 25 9.81 25.172 10.218 25.516C10.623 25.86 10.827 26.356 10.827 27C10.827 27.271 10.776 27.535 10.675 27.795C10.571 28.051 10.413 28.32 10.198 28.604C9.983 28.887 9.637 29.266 9.158 29.739L8.261 30.77H11V32Z" fill="#2254C7"/>
</svg>
