<svg width="128" height="128" viewBox="0 0 128 128" fill="none" xmlns="http://www.w3.org/2000/svg">
<path d="M128 30.4974V106.125C128 108.208 126.543 110.006 124.505 110.442C82.6695 119.348 85.6337 118.881 84.3228 118.605C40.0108 109.17 42.8698 109.609 41.5614 109.896L2.67034 118.23C1.29655 118.522 0 117.477 0 116.07V40.5222C0 38.445 1.44828 36.6463 3.48138 36.2077C44.9837 27.2251 42.0905 27.6819 43.4124 27.9677C87.8566 37.5222 84.8477 37.0458 86.1683 36.7622L125.33 28.3401C126.703 28.045 128 29.0932 128 30.4974Z" fill="#F2BD42"/>
<path d="M85.2414 36.9608V118.702C84.4119 118.702 86.9288 119.128 42.4828 109.697V27.8684C43.2119 27.8684 84.9652 36.9012 85.2414 36.9608Z" fill="#FFFAF0"/>
<path d="M85.2414 75.1338V118.701C84.4019 118.701 86.9007 119.122 42.4828 109.697V93.2472C42.4828 90.7967 44.4794 88.8331 46.9299 88.8348C60.3594 88.8441 71.8676 82.8505 79.2949 73.1346C81.2212 70.6146 85.2414 71.9617 85.2414 75.1338Z" fill="#FFDC8C"/>
<path d="M91.1117 41.7294C87.5302 46.8339 82.9572 52.2499 77.8235 57.2052C75.8124 59.1448 72.6088 59.1572 70.5848 57.2052C65.4706 52.2687 60.8941 46.8568 57.2966 41.7294C51.5172 33.5611 52.5324 22.3997 59.6083 15.3239C67.6635 7.26869 80.7446 7.26841 88.8 15.3239C95.8759 22.3997 96.891 33.5611 91.1117 41.7294Z" fill="#2A64E9"/>
<path d="M71.8235 53.7876C72.1661 54.261 72.5126 54.7316 72.8629 55.1992C73.9683 56.6748 71.9755 58.5467 70.5848 57.2055C65.4706 52.269 60.8941 46.8571 57.2966 41.7296C51.5172 33.5614 52.5324 22.4 59.6083 15.3241C68.1986 6.73379 82.3018 7.40689 90.0557 16.6963C91.2668 18.147 90.1766 20.3365 88.2872 20.299C72.3517 19.9829 60.563 38.2736 71.8235 53.7876Z" fill="#8CAFFF"/>
<path d="M74.2014 20.9018C79.1586 20.9018 83.2386 24.979 83.2386 29.939C83.2386 34.8963 79.1586 38.9735 74.2014 38.9735C69.2441 38.9735 65.1641 34.8963 65.1641 29.939C65.1641 24.979 69.2441 20.9018 74.2014 20.9018Z" fill="#E0EAFF"/>
<path d="M77.2336 23.3371C73.2074 25.7972 70.0237 29.6582 68.4378 34.3412C68.1393 35.2226 66.9399 35.3694 66.4582 34.5732C62.1021 27.3708 69.2665 18.7542 77.0022 21.3429C77.8993 21.643 78.0411 22.8439 77.2336 23.3371Z" fill="#EEF7FF"/>
</svg>
