<svg width="24" height="24" viewBox="0 0 24 24" fill="none" xmlns="http://www.w3.org/2000/svg">
<path fill-rule="evenodd" clip-rule="evenodd" d="M2 12V19C2 19.2652 2.10536 19.5196 2.29289 19.7071C2.48043 19.8946 2.73478 20 3 20H21C21.2652 20 21.5196 19.8946 21.7071 19.7071C21.8946 19.5196 22 19.2652 22 19V12H24V19C24 19.7957 23.6839 20.5587 23.1213 21.1213C22.5587 21.6839 21.7957 22 21 22H3C2.20435 22 1.44129 21.6839 0.87868 21.1213C0.316071 20.5587 0 19.7956 0 19V12H2Z" fill="#1D2939"/>
<path fill-rule="evenodd" clip-rule="evenodd" d="M0.87868 2.87868C1.44129 2.31607 2.20435 2 3 2H21C21.7957 2 22.5587 2.31607 23.1213 2.87868C23.6839 3.44129 24 4.20435 24 5V8.59363L12 15.1391L0 8.59363V5C0 4.20435 0.316071 3.44129 0.87868 2.87868ZM3 4C2.73478 4 2.48043 4.10536 2.29289 4.29289C2.10536 4.48043 2 4.73478 2 5V7.40637L12 12.8609L22 7.40637V5C22 4.73478 21.8946 4.48043 21.7071 4.29289C21.5196 4.10536 21.2652 4 21 4H3Z" fill="#1D2939"/>
</svg>
