<svg width="24" height="24" viewBox="0 0 24 24" fill="none" xmlns="http://www.w3.org/2000/svg">
<path fill-rule="evenodd" clip-rule="evenodd" d="M23 4C23.5523 4 24 4.44772 24 5V20C24 20.4589 23.6877 20.8589 23.2425 20.9701L15.2425 22.9701C15.058 23.0163 14.8642 23.0088 14.6838 22.9487L8.96003 21.0408L1.24254 22.9701C0.943794 23.0448 0.627304 22.9777 0.384588 22.7882C0.141872 22.5987 0 22.3079 0 22V7C0 6.44772 0.447715 6 1 6C1.55228 6 2 6.44772 2 7V20.7192L8.75746 19.0299C8.94197 18.9837 9.1358 18.9912 9.31623 19.0513L15.04 20.9592L22 19.2192V5C22 4.44772 22.4477 4 23 4Z" fill="#1D2939"/>
<path fill-rule="evenodd" clip-rule="evenodd" d="M12 2C9.79086 2 8 3.79086 8 6C8 8.20914 9.79086 10 12 10C14.2091 10 16 8.20914 16 6C16 3.79086 14.2091 2 12 2ZM6 6C6 2.68629 8.68629 0 12 0C15.3137 0 18 2.68629 18 6C18 9.31371 15.3137 12 12 12C8.68629 12 6 9.31371 6 6Z" fill="#1D2939"/>
<path fill-rule="evenodd" clip-rule="evenodd" d="M12 10C12.5523 10 13 10.4477 13 11V16C13 16.5523 12.5523 17 12 17C11.4477 17 11 16.5523 11 16V11C11 10.4477 11.4477 10 12 10Z" fill="#1D2939"/>
</svg>
