<svg width="24" height="24" viewBox="0 0 24 24" fill="none" xmlns="http://www.w3.org/2000/svg">
<g clip-path="url(#clip0_801_816)">
<mask id="mask0_801_816" style="mask-type:luminance" maskUnits="userSpaceOnUse" x="0" y="0" width="24" height="24">
<path d="M24 0H0V24H24V0Z" fill="white"/>
</mask>
<g mask="url(#mask0_801_816)">
<path d="M15 24H1C0.45 24 0 23.55 0 23V18.69C0 17.07 0.97 15.62 2.46 14.99C4.05 14.33 5.91 14 8 14C10.09 14 11.95 14.33 13.54 14.99C15.04 15.61 16 17.06 16 18.69V23C16 23.55 15.55 24 15 24ZM2 22H14V18.69C14 17.88 13.52 17.15 12.77 16.84C11.43 16.28 9.82 16 8 16C6.18 16 4.57 16.28 3.23 16.84C2.48 17.15 2 17.88 2 18.69V22Z" fill="#101828"/>
<path d="M8 13C5.24 13 3 10.76 3 8C3 5.24 5.24 3 8 3C10.76 3 13 5.24 13 8C13 10.76 10.76 13 8 13ZM8 5C6.35 5 5 6.35 5 8C5 9.65 6.35 11 8 11C9.65 11 11 9.65 11 8C11 6.35 9.65 5 8 5Z" fill="#101828"/>
<path d="M23 14H14C13.45 14 13 13.55 13 13V11.84C13 10.92 13.41 10.06 14.12 9.5C14.98 8.82 16.44 8 18.5 8C20.56 8 22.02 8.82 22.88 9.5C23.59 10.06 24 10.91 24 11.84V13C24 13.55 23.55 14 23 14ZM15 12H22V11.84C22 11.53 21.87 11.25 21.64 11.07C21.03 10.58 19.99 10 18.5 10C17.01 10 15.97 10.58 15.36 11.06C15.13 11.24 15 11.52 15 11.83V11.99V12Z" fill="#101828"/>
<path d="M18.5 7C16.57 7 15 5.43 15 3.5C15 1.57 16.57 0 18.5 0C20.43 0 22 1.57 22 3.5C22 5.43 20.43 7 18.5 7ZM18.5 2C17.67 2 17 2.67 17 3.5C17 4.33 17.67 5 18.5 5C19.33 5 20 4.33 20 3.5C20 2.67 19.33 2 18.5 2Z" fill="#101828"/>
</g>
</g>
<defs>
<clipPath id="clip0_801_816">
<rect width="24" height="24" fill="white"/>
</clipPath>
</defs>
</svg>
