<svg width="24" height="24" viewBox="0 0 24 24" fill="none" xmlns="http://www.w3.org/2000/svg">
<g clip-path="url(#clip0_651_560)">
<path fill-rule="evenodd" clip-rule="evenodd" d="M4 4C3.44728 4 3 4.44728 3 5C3 5.55272 3.44728 6 4 6C4.55272 6 5 5.55272 5 5C5 4.44728 4.55272 4 4 4ZM1 5C1 3.34272 2.34272 2 4 2C5.65728 2 7 3.34272 7 5C7 6.65728 5.65728 8 4 8C2.34272 8 1 6.65728 1 5Z" fill="#1D2939"/>
<path fill-rule="evenodd" clip-rule="evenodd" d="M3 11C2.44728 11 2 11.4473 2 12V16H3C3.55228 16 4 16.4477 4 17V20H6C6.55228 20 7 20.4477 7 21C7 21.5523 6.55228 22 6 22H3C2.44772 22 2 21.5523 2 21V18H1C0.447715 18 0 17.5523 0 17V12C0 10.3427 1.34272 9 3 9H4C4.55228 9 5 9.44772 5 10C5 10.5523 4.55228 11 4 11H3Z" fill="#1D2939"/>
<path fill-rule="evenodd" clip-rule="evenodd" d="M17 5C17 3.34272 18.3427 2 20 2C21.6573 2 23 3.34272 23 5C23 6.65728 21.6573 8 20 8C18.3427 8 17 6.65728 17 5ZM20 4C19.4473 4 19 4.44728 19 5C19 5.55272 19.4473 6 20 6C20.5527 6 21 5.55272 21 5C21 4.44728 20.5527 4 20 4Z" fill="#1D2939"/>
<path fill-rule="evenodd" clip-rule="evenodd" d="M19 10C19 9.44772 19.4477 9 20 9H21C22.6573 9 24 10.3427 24 12V17C24 17.5523 23.5523 18 23 18H22V21C22 21.5523 21.5523 22 21 22H18C17.4477 22 17 21.5523 17 21C17 20.4477 17.4477 20 18 20H20V17C20 16.4477 20.4477 16 21 16H22V12C22 11.4473 21.5527 11 21 11H20C19.4477 11 19 10.5523 19 10Z" fill="#1D2939"/>
<path fill-rule="evenodd" clip-rule="evenodd" d="M12 2C10.8953 2 10 2.89528 10 4C10 5.10472 10.8953 6 12 6C13.1047 6 14 5.10472 14 4C14 2.89528 13.1047 2 12 2ZM8 4C8 1.79072 9.79072 0 12 0C14.2093 0 16 1.79072 16 4C16 6.20928 14.2093 8 12 8C9.79072 8 8 6.20928 8 4Z" fill="#1D2939"/>
<path fill-rule="evenodd" clip-rule="evenodd" d="M9 11C8.44728 11 8 11.4473 8 12V16H9C9.55228 16 10 16.4477 10 17V22H14V18C14 17.4477 14.4477 17 15 17H16V12C16 11.4473 15.5527 11 15 11H9ZM16 19H17C17.5523 19 18 18.5523 18 18V12C18 10.3427 16.6573 9 15 9H9C7.34272 9 6 10.3427 6 12V17C6 17.5523 6.44772 18 7 18H8V23C8 23.5523 8.44772 24 9 24H15C15.5523 24 16 23.5523 16 23V19Z" fill="#1D2939"/>
</g>
<defs>
<clipPath id="clip0_651_560">
<rect width="24" height="24" fill="white"/>
</clipPath>
</defs>
</svg>
