<svg width="24" height="24" viewBox="0 0 24 24" fill="none" xmlns="http://www.w3.org/2000/svg">
<path fill-rule="evenodd" clip-rule="evenodd" d="M12 2C9.75228 2 8 3.75228 8 6V11.1C8 11.6523 7.55228 12.1 7 12.1C6.44772 12.1 6 11.6523 6 11.1V6C6 2.64772 8.64772 0 12 0C15.3523 0 18 2.64772 18 6V11.1C18 11.6523 17.5523 12.1 17 12.1C16.4477 12.1 16 11.6523 16 11.1V6C16 3.75228 14.2477 2 12 2Z" fill="#1D2939"/>
<path fill-rule="evenodd" clip-rule="evenodd" d="M12 10C8.68629 10 6 12.6863 6 16C6 19.3137 8.68629 22 12 22C15.3137 22 18 19.3137 18 16C18 12.6863 15.3137 10 12 10ZM4 16C4 11.5817 7.58172 8 12 8C16.4183 8 20 11.5817 20 16C20 20.4183 16.4183 24 12 24C7.58172 24 4 20.4183 4 16Z" fill="#1D2939"/>
<path fill-rule="evenodd" clip-rule="evenodd" d="M12 14C11.4477 14 11 14.4477 11 15C11 15.5523 11.4477 16 12 16C12.5523 16 13 15.5523 13 15C13 14.4477 12.5523 14 12 14ZM9 15C9 13.3431 10.3431 12 12 12C13.6569 12 15 13.3431 15 15C15 16.6569 13.6569 18 12 18C10.3431 18 9 16.6569 9 15Z" fill="#1D2939"/>
<path fill-rule="evenodd" clip-rule="evenodd" d="M12 16C12.5523 16 13 16.4477 13 17V19C13 19.5523 12.5523 20 12 20C11.4477 20 11 19.5523 11 19V17C11 16.4477 11.4477 16 12 16Z" fill="#1D2939"/>
</svg>
