<svg width="24" height="24" viewBox="0 0 24 24" fill="none" xmlns="http://www.w3.org/2000/svg">
<g clip-path="url(#clip0_706_605)">
<path fill-rule="evenodd" clip-rule="evenodd" d="M0 1C0 0.447715 0.447715 0 1 0H11C11.2652 0 11.5195 0.105345 11.7071 0.292862L23.1221 11.7069L23.1221 11.7069C24.2936 12.8784 24.2936 14.7776 23.1221 15.9491L15.9501 23.1211C15.9394 23.1319 15.9284 23.1423 15.9172 23.1526C14.7433 24.2925 12.8678 24.2821 11.7069 23.1211L0.292893 11.7071C0.105357 11.5196 0 11.2652 0 11V1ZM2 2V10.5858L13.1211 21.7069C13.5116 22.0974 14.1444 22.0974 14.5349 21.7069C14.5438 21.698 14.5528 21.6893 14.562 21.6808L21.7079 14.5349C22.0984 14.1444 22.0984 13.5116 21.7079 13.1211L10.5858 2H2Z" fill="#1D2939"/>
<path fill-rule="evenodd" clip-rule="evenodd" d="M7 6C6.44772 6 6 6.44772 6 7C6 7.55228 6.44772 8 7 8C7.55228 8 8 7.55228 8 7C8 6.44772 7.55228 6 7 6ZM4 7C4 5.34315 5.34315 4 7 4C8.65685 4 10 5.34315 10 7C10 8.65685 8.65685 10 7 10C5.34315 10 4 8.65685 4 7Z" fill="#1D2939"/>
<path fill-rule="evenodd" clip-rule="evenodd" d="M12.2929 9.29289C12.6834 8.90237 13.3166 8.90237 13.7071 9.29289L17.7071 13.2929C18.0976 13.6834 18.0976 14.3166 17.7071 14.7071C17.3166 15.0976 16.6834 15.0976 16.2929 14.7071L12.2929 10.7071C11.9024 10.3166 11.9024 9.68342 12.2929 9.29289Z" fill="#1D2939"/>
<path fill-rule="evenodd" clip-rule="evenodd" d="M9.29289 12.2929C9.68342 11.9024 10.3166 11.9024 10.7071 12.2929L14.7071 16.2929C15.0976 16.6834 15.0976 17.3166 14.7071 17.7071C14.3166 18.0976 13.6834 18.0976 13.2929 17.7071L9.29289 13.7071C8.90237 13.3166 8.90237 12.6834 9.29289 12.2929Z" fill="#1D2939"/>
</g>
<defs>
<clipPath id="clip0_706_605">
<rect width="24" height="24" fill="white"/>
</clipPath>
</defs>
</svg>
