<svg width="49" height="48" viewBox="0 0 49 48" fill="none" xmlns="http://www.w3.org/2000/svg">
<path d="M34.333 27H14.333V45L24.333 42L34.333 45V27Z" fill="#103DA3"/>
<path d="M34.333 31.332L33.836 31.343C32.008 31.381 30.352 32.338 29.403 33.904L29.122 34.369C28.757 34.972 27.988 35.179 27.372 34.84L26.894 34.576C26.092 34.135 25.213 33.914 24.334 33.914C23.454 33.914 22.574 34.135 21.771 34.577L21.298 34.838C20.681 35.177 19.91 34.971 19.545 34.368L19.264 33.903C18.317 32.338 16.66 31.381 14.832 31.343L14.333 31.332V35.333L14.748 35.342C15.199 35.351 15.608 35.587 15.842 35.974L16.124 36.439C17.603 38.882 20.72 39.719 23.229 38.341L23.704 38.079C24.1 37.862 24.572 37.862 24.964 38.078L25.443 38.342C26.258 38.79 27.138 39.004 28.006 39.004C29.804 39.004 31.548 38.087 32.546 36.437L32.826 35.973C33.06 35.586 33.47 35.35 33.922 35.341L34.333 35.332V31.332Z" fill="#E0EAFF"/>
<path d="M40.6579 21.596C40.1109 20.603 40.1109 19.398 40.6579 18.405L40.9199 17.929C41.7749 16.374 41.2529 14.42 39.7329 13.501L39.2679 13.219C38.2979 12.631 37.6959 11.589 37.6719 10.456L37.6599 9.912C37.6239 8.137 36.1939 6.707 34.4189 6.671L33.8749 6.659C32.7409 6.636 31.6979 6.033 31.1119 5.063L30.8299 4.598C29.9109 3.079 27.9569 2.556 26.4019 3.411L25.9259 3.673C24.9329 4.22 23.7279 4.22 22.7349 3.673L22.2599 3.412C20.7049 2.557 18.7519 3.08 17.8329 4.599L17.5509 5.064C16.9629 6.034 15.9209 6.636 14.7879 6.66L14.2439 6.672C12.4689 6.708 11.0389 8.138 11.0029 9.913L10.9909 10.457C10.9679 11.591 10.3649 12.634 9.39488 13.22L8.92988 13.502C7.41188 14.421 6.88788 16.375 7.74288 17.93L8.00488 18.406C8.55188 19.399 8.55188 20.604 8.00488 21.597L7.74388 22.072C6.88888 23.627 7.41088 25.581 8.93088 26.5L9.39588 26.782C10.3659 27.37 10.9679 28.412 10.9919 29.545L11.0039 30.089C11.0399 31.864 12.4699 33.294 14.2449 33.33L14.7889 33.342C15.9229 33.365 16.9659 33.968 17.5519 34.938L17.8339 35.403C18.7529 36.921 20.7069 37.445 22.2619 36.59L22.7379 36.328C23.7309 35.781 24.9359 35.781 25.9289 36.328L26.4049 36.59C27.9599 37.445 29.9139 36.923 30.8329 35.403L31.1149 34.938C31.7029 33.968 32.7449 33.366 33.8779 33.342L34.4219 33.33C36.1969 33.294 37.6269 31.864 37.6629 30.089L37.6749 29.545C37.6979 28.411 38.3009 27.368 39.2709 26.782L39.7359 26.5C41.2539 25.581 41.7779 23.627 40.9229 22.072L40.6579 21.596Z" fill="#58C373"/>
<path d="M24.3319 8.923C21.3941 8.923 18.5766 10.09 16.4993 12.1674C14.4219 14.2447 13.2549 17.0622 13.2549 20C13.2549 22.9378 14.4219 25.7553 16.4993 27.8326C18.5766 29.91 21.3941 31.077 24.3319 31.077C27.2697 31.077 30.0872 29.91 32.1645 27.8326C34.2418 25.7553 35.4089 22.9378 35.4089 20C35.4089 17.0622 34.2418 14.2447 32.1645 12.1674C30.0872 10.09 27.2697 8.923 24.3319 8.923Z" fill="#2254C7"/>
<path d="M24.333 32.001C17.716 32.001 12.333 26.618 12.333 20.001C12.333 13.384 17.715 8 24.333 8C30.951 8 36.333 13.383 36.333 20C36.333 26.617 30.95 32.001 24.333 32.001ZM24.333 10C18.819 10 14.333 14.486 14.333 20C14.333 25.514 18.819 30 24.333 30C29.847 30 34.333 25.514 34.333 20C34.333 14.486 29.847 10 24.333 10Z" fill="#E0EAFF"/>
</svg>
