<svg width="24" height="24" viewBox="0 0 24 24" fill="none" xmlns="http://www.w3.org/2000/svg">
<g clip-path="url(#clip0_681_582)">
<path fill-rule="evenodd" clip-rule="evenodd" d="M4 16C2.89543 16 2 16.8954 2 18C2 19.1046 2.89543 20 4 20C5.10457 20 6 19.1046 6 18C6 16.8954 5.10457 16 4 16ZM0 18C0 15.7909 1.79086 14 4 14C6.20914 14 8 15.7909 8 18C8 20.2091 6.20914 22 4 22C1.79086 22 0 20.2091 0 18Z" fill="#1D2939"/>
<path fill-rule="evenodd" clip-rule="evenodd" d="M3.09078 0.137811C3.63875 0.206721 4.02711 0.7068 3.9582 1.25477L3.41677 5.56018L7.6606 4.37769C8.19262 4.22945 8.74408 4.54057 8.89232 5.07258C9.04056 5.6046 8.72944 6.15606 8.19742 6.3043L2.50542 7.8903C2.18299 7.98014 1.83699 7.90271 1.58361 7.684C1.33022 7.4653 1.20306 7.13433 1.24483 6.80222L1.97383 1.00522C2.04274 0.457256 2.54281 0.0689015 3.09078 0.137811Z" fill="#1D2939"/>
<path fill-rule="evenodd" clip-rule="evenodd" d="M12.3548 2.00306C10.4645 1.93577 8.59382 2.40599 6.96001 3.35913C5.3262 4.31227 3.99622 5.70924 3.12445 7.38788C2.86991 7.87802 2.26624 8.069 1.77611 7.81446C1.28598 7.55992 1.09499 6.95625 1.34953 6.46612C2.39565 4.45175 3.99163 2.77538 5.9522 1.63161C7.91278 0.487846 10.1575 -0.0764174 12.4259 0.0043234C14.6943 0.0850642 16.8933 0.807498 18.7675 2.08776C20.6418 3.36803 22.1146 5.15362 23.0148 7.23727C23.9151 9.32092 24.2059 11.6172 23.8536 13.8595C23.5013 16.1018 22.5202 18.1982 21.0243 19.9053C19.5284 21.6124 17.579 22.8603 15.4023 23.504C13.2257 24.1478 10.9112 24.161 8.72735 23.5421C8.19599 23.3915 7.8873 22.8387 8.03788 22.3074C8.18845 21.776 8.74127 21.4673 9.27264 21.6179C11.0925 22.1336 13.0213 22.1226 14.8351 21.5861C16.649 21.0497 18.2735 20.0098 19.5201 18.5872C20.7667 17.1646 21.5842 15.4176 21.8778 13.549C22.1715 11.6804 21.9291 9.76689 21.1789 8.03052C20.4287 6.29414 19.2014 4.80615 17.6395 3.73926C16.0776 2.67237 14.2451 2.07034 12.3548 2.00306Z" fill="#1D2939"/>
</g>
<defs>
<clipPath id="clip0_681_582">
<rect width="24" height="24" fill="white"/>
</clipPath>
</defs>
</svg>
