<svg width="24" height="24" viewBox="0 0 24 24" fill="none" xmlns="http://www.w3.org/2000/svg">
<path fill-rule="evenodd" clip-rule="evenodd" d="M15.2929 8.29289C15.6834 7.90237 16.3166 7.90237 16.7071 8.29289L19.7071 11.2929C20.0976 11.6834 20.0976 12.3166 19.7071 12.7071L16.7071 15.7071C16.3166 16.0976 15.6834 16.0976 15.2929 15.7071C14.9024 15.3166 14.9024 14.6834 15.2929 14.2929L17.5858 12L15.2929 9.70711C14.9024 9.31658 14.9024 8.68342 15.2929 8.29289Z" fill="#1D2939"/>
<path fill-rule="evenodd" clip-rule="evenodd" d="M8.70711 8.29289C9.09763 8.68342 9.09763 9.31658 8.70711 9.70711L6.41421 12L8.70711 14.2929C9.09763 14.6834 9.09763 15.3166 8.70711 15.7071C8.31658 16.0976 7.68342 16.0976 7.29289 15.7071L4.29289 12.7071C3.90237 12.3166 3.90237 11.6834 4.29289 11.2929L7.29289 8.29289C7.68342 7.90237 8.31658 7.90237 8.70711 8.29289Z" fill="#1D2939"/>
<path fill-rule="evenodd" clip-rule="evenodd" d="M1 2C1.55228 2 2 2.44772 2 3V21C2 21.5523 1.55228 22 1 22C0.447715 22 0 21.5523 0 21V3C0 2.44772 0.447715 2 1 2Z" fill="#1D2939"/>
<path fill-rule="evenodd" clip-rule="evenodd" d="M23 2C23.5523 2 24 2.44772 24 3V21C24 21.5523 23.5523 22 23 22C22.4477 22 22 21.5523 22 21V3C22 2.44772 22.4477 2 23 2Z" fill="#1D2939"/>
</svg>
