<svg width="24" height="24" viewBox="0 0 24 24" fill="none" xmlns="http://www.w3.org/2000/svg">
<path fill-rule="evenodd" clip-rule="evenodd" d="M8.29289 15.2929C8.68342 14.9024 9.31658 14.9024 9.70711 15.2929L12 17.5858L14.2929 15.2929C14.6834 14.9024 15.3166 14.9024 15.7071 15.2929C16.0976 15.6834 16.0976 16.3166 15.7071 16.7071L12.7071 19.7071C12.3166 20.0976 11.6834 20.0976 11.2929 19.7071L8.29289 16.7071C7.90237 16.3166 7.90237 15.6834 8.29289 15.2929Z" fill="#1D2939"/>
<path fill-rule="evenodd" clip-rule="evenodd" d="M11.2929 4.29289C11.6834 3.90237 12.3166 3.90237 12.7071 4.29289L15.7071 7.29289C16.0976 7.68342 16.0976 8.31658 15.7071 8.70711C15.3166 9.09763 14.6834 9.09763 14.2929 8.70711L12 6.41421L9.70711 8.70711C9.31658 9.09763 8.68342 9.09763 8.29289 8.70711C7.90237 8.31658 7.90237 7.68342 8.29289 7.29289L11.2929 4.29289Z" fill="#1D2939"/>
<path fill-rule="evenodd" clip-rule="evenodd" d="M2 1C2 0.447715 2.44772 0 3 0H21C21.5523 0 22 0.447715 22 1C22 1.55228 21.5523 2 21 2H3C2.44772 2 2 1.55228 2 1Z" fill="#1D2939"/>
<path fill-rule="evenodd" clip-rule="evenodd" d="M2 23C2 22.4477 2.44772 22 3 22H21C21.5523 22 22 22.4477 22 23C22 23.5523 21.5523 24 21 24H3C2.44772 24 2 23.5523 2 23Z" fill="#1D2939"/>
</svg>
