<svg width="24" height="24" viewBox="0 0 24 24" fill="none" xmlns="http://www.w3.org/2000/svg">
<path fill-rule="evenodd" clip-rule="evenodd" d="M22.7809 1.37531C23.1259 1.80657 23.056 2.43586 22.6247 2.78087L8 14.4806V18.2478L9.83324 16.0581C10.1878 15.6346 10.8185 15.5787 11.2419 15.9332C11.6654 16.2878 11.7213 16.9185 11.3668 17.3419L7.76676 21.6419C7.49676 21.9644 7.05382 22.0835 6.6585 21.9399C6.26319 21.7962 6 21.4206 6 21V14C6 13.6962 6.13809 13.4089 6.3753 13.2191L21.3753 1.21913C21.8066 0.874122 22.4359 0.944043 22.7809 1.37531Z" fill="#101828"/>
<path fill-rule="evenodd" clip-rule="evenodd" d="M22.6395 1.23121C22.9216 1.46589 23.0526 1.83626 22.9806 2.19612L18.9806 22.1961C18.9132 22.5329 18.6777 22.8116 18.3569 22.9341C18.0361 23.0567 17.6748 23.0061 17.4 22.8L1.4 10.8C1.11087 10.5832 0.961245 10.2272 1.00863 9.86888C1.05602 9.51059 1.29305 9.20575 1.62861 9.07152L21.6286 1.07152C21.9693 0.935229 22.3574 0.996521 22.6395 1.23121ZM4.02351 10.2676L17.3306 20.248L20.6574 3.61408L4.02351 10.2676Z" fill="#101828"/>
</svg>
