<svg width="24" height="24" viewBox="0 0 24 24" fill="none" xmlns="http://www.w3.org/2000/svg">
<path fill-rule="evenodd" clip-rule="evenodd" d="M12.5782 2.09332C12.9308 1.92926 13.3466 1.98455 13.6441 2.23509L23.1441 10.2351C23.3698 10.4251 23.5 10.705 23.5 11C23.5 11.295 23.3698 11.5749 23.1441 11.7649L13.6441 19.7649C13.3466 20.0154 12.9308 20.0707 12.5782 19.9067C12.2255 19.7426 12 19.389 12 19V15.0107C9.1624 15.0744 7.50449 15.4268 6.20475 16.1418C4.73874 16.9483 3.60697 18.2749 1.78962 20.6136C1.52744 20.951 1.07986 21.0845 0.675669 20.9459C0.271482 20.8074 0 20.4273 0 20C0 14.8638 1.6907 11.5386 4.28904 9.53334C6.54946 7.78889 9.36659 7.14635 12 7.02305V3C12 2.61105 12.2255 2.25739 12.5782 2.09332ZM14 5.14945V8C14 8.55229 13.5523 9 13 9C10.3036 9 7.56139 9.53426 5.51096 11.1167C4.00788 12.2766 2.78243 14.0738 2.26521 16.8719C3.20366 15.828 4.13292 14.9989 5.24075 14.3895C7.14679 13.3409 9.46137 13 13 13C13.5523 13 14 13.4477 14 14V16.8506L20.9475 11L14 5.14945Z" fill="#212121"/>
</svg>
