<svg width="24" height="24" viewBox="0 0 24 24" fill="none" xmlns="http://www.w3.org/2000/svg">
<path fill-rule="evenodd" clip-rule="evenodd" d="M8 2C7.20435 2 6.44129 2.31607 5.87868 2.87868C5.31607 3.44129 5 4.20435 5 5V9C5 9.55229 4.55228 10 4 10C3.44772 10 3 9.55229 3 9V5C3 3.67392 3.52678 2.40215 4.46447 1.46447C5.40215 0.526784 6.67392 0 8 0C9.32608 0 10.5979 0.526784 11.5355 1.46447C12.4732 2.40215 13 3.67392 13 5V19C13 19.7956 13.3161 20.5587 13.8787 21.1213C14.4413 21.6839 15.2044 22 16 22C16.7956 22 17.5587 21.6839 18.1213 21.1213C18.6839 20.5587 19 19.7956 19 19V15C19 14.4477 19.4477 14 20 14C20.5523 14 21 14.4477 21 15V19C21 20.3261 20.4732 21.5979 19.5355 22.5355C18.5979 23.4732 17.3261 24 16 24C14.6739 24 13.4021 23.4732 12.4645 22.5355C11.5268 21.5979 11 20.3261 11 19V5C11 4.20435 10.6839 3.44129 10.1213 2.87868C9.55871 2.31607 8.79565 2 8 2Z" fill="#1D2939"/>
<path fill-rule="evenodd" clip-rule="evenodd" d="M1 12C1 11.4477 1.44772 11 2 11H6C6.55228 11 7 11.4477 7 12V21C7 21.5523 6.55228 22 6 22H2C1.44772 22 1 21.5523 1 21V12ZM3 13V20H5V13H3Z" fill="#1D2939"/>
<path fill-rule="evenodd" clip-rule="evenodd" d="M17 3C17 2.44772 17.4477 2 18 2H22C22.5523 2 23 2.44772 23 3V12C23 12.5523 22.5523 13 22 13H18C17.4477 13 17 12.5523 17 12V3ZM19 4V11H21V4H19Z" fill="#1D2939"/>
</svg>
