<svg width="24" height="24" viewBox="0 0 24 24" fill="none" xmlns="http://www.w3.org/2000/svg">
<g clip-path="url(#clip0_619_521)">
<path fill-rule="evenodd" clip-rule="evenodd" d="M11.9757 7.99971C10.096 7.95399 8.22521 8.27178 6.46606 8.93561C5.94934 9.13059 5.37239 8.86978 5.1774 8.35306C4.98241 7.83634 5.24323 7.25939 5.75995 7.0644C7.75248 6.3125 9.87102 5.95107 12 5.99973C14.129 5.95107 16.2475 6.3125 18.2401 7.0644C18.7568 7.25939 19.0176 7.83634 18.8226 8.35306C18.6276 8.86978 18.0507 9.13059 17.5339 8.93561C15.7748 8.27178 13.904 7.95399 12.0243 7.99971C12.0081 8.0001 11.9919 8.0001 11.9757 7.99971Z" fill="#1D2939"/>
<path fill-rule="evenodd" clip-rule="evenodd" d="M9 17C9 16.4477 9.44772 16 10 16H14C14.5523 16 15 16.4477 15 17V20.921C15 21.4733 14.5523 21.921 14 21.921C13.4477 21.921 13 21.4733 13 20.921V18H11V20.921C11 21.4733 10.5523 21.921 10 21.921C9.44772 21.921 9 21.4733 9 20.921V17Z" fill="#1D2939"/>
<path fill-rule="evenodd" clip-rule="evenodd" d="M4.63563 5.37483C2.71217 6.24913 2 7.25257 2 8C2 8.74743 2.71217 9.75087 4.63563 10.6252C6.46882 11.4584 9.07158 12 12 12C14.9284 12 17.5312 11.4584 19.3644 10.6252C21.2878 9.75087 22 8.74743 22 8C22 7.25257 21.2878 6.24913 19.3644 5.37483C17.5312 4.54156 14.9284 4 12 4C9.07158 4 6.46882 4.54156 4.63563 5.37483ZM3.80802 3.5541C5.95605 2.57772 8.85329 2 12 2C15.1467 2 18.044 2.57772 20.192 3.5541C22.2497 4.48944 24 5.98601 24 8C24 10.014 22.2497 11.5106 20.192 12.4459C18.044 13.4223 15.1467 14 12 14C8.85329 14 5.95605 13.4223 3.80802 12.4459C1.75027 11.5106 0 10.014 0 8C0 5.98601 1.75027 4.48944 3.80802 3.5541Z" fill="#1D2939"/>
<path fill-rule="evenodd" clip-rule="evenodd" d="M0.844038 7.01223C1.38956 6.92609 1.90163 7.2985 1.98776 7.84403L3.48776 17.344C3.49591 17.3956 3.5 17.4478 3.5 17.5C3.5 17.5875 3.54479 17.796 3.90335 18.1083C4.2596 18.4186 4.83301 18.7436 5.62809 19.0365C7.21038 19.6195 9.46297 20 12 20C14.537 20 16.7896 19.6195 18.3719 19.0365C19.167 18.7436 19.7404 18.4186 20.0967 18.1083C20.4552 17.796 20.5 17.5875 20.5 17.5C20.5 17.4478 20.5041 17.3956 20.5122 17.344L22.0122 7.84403C22.0984 7.2985 22.6104 6.92609 23.156 7.01223C23.7015 7.09837 24.0739 7.61043 23.9878 8.15596L22.4983 17.589C22.4668 18.4272 21.9927 19.1091 21.4103 19.6164C20.8052 20.1435 19.9874 20.5728 19.0633 20.9132C17.2074 21.597 14.71 22 12 22C9.29003 22 6.79262 21.597 4.93666 20.9132C4.01262 20.5728 3.19484 20.1435 2.58968 19.6164C2.00733 19.1091 1.53323 18.4272 1.50167 17.5891L0.0122377 8.15596C-0.073898 7.61043 0.298512 7.09837 0.844038 7.01223Z" fill="#1D2939"/>
<path fill-rule="evenodd" clip-rule="evenodd" d="M1.21651 13.4468C1.58276 13.0335 2.21477 12.9953 2.62815 13.3615C3.9021 14.4902 5.47298 15.2299 7.15456 15.493C7.70021 15.5784 8.07335 16.0899 7.98798 16.6356C7.90262 17.1812 7.39109 17.5543 6.84544 17.469C4.78597 17.1468 2.86208 16.2408 1.30185 14.8585C0.888473 14.4922 0.850265 13.8602 1.21651 13.4468Z" fill="#1D2939"/>
<path fill-rule="evenodd" clip-rule="evenodd" d="M22.7835 13.4468C23.1497 13.8602 23.1115 14.4922 22.6981 14.8585C21.1379 16.2408 19.214 17.1468 17.1546 17.469C16.6089 17.5543 16.0974 17.1812 16.012 16.6356C15.9267 16.0899 16.2998 15.5784 16.8454 15.493C18.527 15.2299 20.0979 14.4902 21.3719 13.3615C21.7852 12.9953 22.4172 13.0335 22.7835 13.4468Z" fill="#1D2939"/>
</g>
<defs>
<clipPath id="clip0_619_521">
<rect width="24" height="24" fill="white"/>
</clipPath>
</defs>
</svg>
