<svg width="49" height="48" viewBox="0 0 49 48" fill="none" xmlns="http://www.w3.org/2000/svg">
<path d="M37.5663 12C37.0663 12 36.5663 11.9 36.1663 11.6C35.0663 10.9 34.1663 9.6 33.8663 7.9C33.2663 5.2 34.2663 2.6 36.0663 2.1C36.7663 1.9 37.4663 2 38.1663 2.4C39.2663 3.1 40.1663 4.4 40.4663 6.1C41.0663 8.8 40.0663 11.4 38.2663 11.9C38.0663 12 37.8663 12 37.5663 12ZM36.7663 4H36.6663C36.0663 4.2 35.4663 5.6 35.8663 7.4C36.1663 8.7 36.7663 9.5 37.2663 9.8C37.4663 9.9 37.6663 10 37.7663 9.9C38.3663 9.7 38.9663 8.3 38.5663 6.5C38.2663 5.2 37.6663 4.4 37.1663 4.1C36.9663 4 36.8663 4 36.7663 4Z" fill="#103DA3"/>
<path d="M37.0684 11.1771L39.0276 10.7752L40.6754 18.8079L38.7162 19.2099L37.0684 11.1771Z" fill="#103DA3"/>
<path d="M40.6666 19.2C40.4666 18.4 39.6666 17.9 38.8666 18.1L31.8666 19L25.3666 13C23.9666 11.6 22.5666 11.6 20.4666 13.7C20.2666 13.9 19.9666 14.2 19.8666 14.5C19.8666 14.5 19.7666 14.6 19.6666 14.7C19.6666 14.7 19.6666 14.8 19.5666 14.8C19.5666 14.9 19.4666 14.9 19.3666 15C19.3666 15 19.3666 15 19.3666 15.1C18.4666 16.6 16.3666 20.5 16.7666 25C16.8666 26.4 17.2666 27.9 17.9666 29.4C17.9666 29.5 20.2666 36 20.2666 36L20.4666 36.5L14.3666 42.6C13.5666 43.4 13.5666 44.6 14.3666 45.4C14.6666 45.8 15.1666 46 15.6666 46C16.1666 46 16.6666 45.8 17.0666 45.4L24.0666 38.4C24.5666 37.9 24.7666 37.1 24.5666 36.4L22.8666 30.8L27.8666 35.2L29.7666 43.6C29.9666 44.5 30.7666 45.2 31.6666 45.2C31.7666 45.2 31.9666 45.2 32.0666 45.2C33.1666 45 33.8666 43.9 33.5666 42.8L31.5666 33.8C31.4666 33.4 31.2666 33 30.9666 32.7L23.1666 25.9C23.2666 25.6 23.3666 25.4 23.5666 25.2C23.5666 23.2 24.9666 20.5 25.9666 18.7L30.9666 22C31.1666 22.1 31.3666 22.2 31.6666 22.2C31.7666 22.2 31.8666 22.2 31.9666 22.2L39.4666 21.2C40.3666 20.8 40.8666 20 40.6666 19.2Z" fill="#B8CDFF"/>
<path d="M23.6665 8.5C23.6665 6.6 25.2665 5 27.1665 5C29.0665 5 30.6665 6.6 30.6665 8.5C30.6665 10.4 29.0665 12 27.1665 12C25.2665 12 23.6665 10.4 23.6665 8.5Z" fill="#B8CDFF"/>
<path d="M12.6665 12C12.6665 13.1 11.7665 14 10.6665 14C9.5665 14 8.6665 13.1 8.6665 12C8.6665 10.9 9.5665 10 10.6665 10C11.7665 10 12.6665 10.9 12.6665 12Z" fill="#103DA3"/>
<path d="M30.9665 32.5L24.0665 26.5C23.7665 26 23.6665 25.4 23.6665 24.9V25C22.7665 26 22.6665 30 22.6665 30L22.8665 30.7L27.8665 35.1L31.6665 33.6C31.5665 33.1 31.2665 32.8 30.9665 32.5Z" fill="#103DA3"/>
<path d="M25.3664 13C23.9664 11.6 22.5664 11.6 20.4664 13.7C20.2664 13.9 19.9664 14.2 19.8664 14.5C19.6664 14.8 16.3664 19.5 16.8664 25H23.6664C23.6664 23 25.0664 20.3 26.0664 18.5L27.7664 19.6L29.8664 17L25.3664 13Z" fill="#58C373"/>
<path d="M23.6666 25H16.7666C16.8666 26.4 17.2666 27.9 17.9666 29.4C17.9666 29.5 20.2666 36 20.2666 36H24.4666L22.6666 30C22.6666 30 22.6666 26 23.6666 25Z" fill="#2254C7"/>
</svg>
