<svg width="24" height="24" viewBox="0 0 24 24" fill="none" xmlns="http://www.w3.org/2000/svg">
<g clip-path="url(#clip0_686_591)">
<path fill-rule="evenodd" clip-rule="evenodd" d="M11 3C10.4477 3 10 3.44772 10 4C10 4.55228 10.4477 5 11 5C11.5523 5 12 4.55228 12 4C12 3.44772 11.5523 3 11 3ZM8 4C8 2.34315 9.34315 1 11 1C12.6569 1 14 2.34315 14 4C14 5.65685 12.6569 7 11 7C9.34315 7 8 5.65685 8 4Z" fill="#1D2939"/>
<path fill-rule="evenodd" clip-rule="evenodd" d="M9.17733 7.55701L17.4819 12.1237C17.9658 12.3899 18.1424 12.9979 17.8762 13.4819C17.6101 13.9658 17.0021 14.1424 16.5181 13.8762L8.19314 9.29825C8.17667 9.28919 8.16045 9.27967 8.14452 9.26969L3.96885 13.4424C3.79461 13.6164 3.69052 13.8488 3.67687 14.0946C3.66321 14.3405 3.74076 14.5828 3.89466 14.775L6.29598 17.7767C6.57164 18.1225 6.7249 18.55 6.73178 18.9922C6.73865 19.4344 6.59876 19.8664 6.33398 20.2207L4.122 23.17C3.79063 23.6118 3.16383 23.7014 2.722 23.37C2.28017 23.0386 2.19063 22.4118 2.522 21.97L4.73202 19.0233L2.33333 16.0249C1.87163 15.4482 1.63898 14.7214 1.67994 13.9837C1.7209 13.2462 2.03254 12.5497 2.55515 12.0276C2.55508 12.0277 2.55521 12.0276 2.55515 12.0276L6.72948 7.8563C6.72942 7.85636 6.72954 7.85625 6.72948 7.8563C7.04935 7.53614 7.46852 7.33376 7.91819 7.28254C8.35699 7.23256 8.79967 7.32926 9.17733 7.55701Z" fill="#1D2939"/>
<path fill-rule="evenodd" clip-rule="evenodd" d="M11.8854 9.09118C12.2769 9.48076 12.2784 10.1139 11.8888 10.5054L7.7796 14.6346L10.7435 15.8206C11.1142 15.9692 11.4325 16.2255 11.6564 16.5563C11.8802 16.8871 11.9999 17.2774 12 17.6768V22C12 22.5523 11.5523 23 11 23C10.4477 23 10 22.5523 10 22V17.6772L7.0365 16.4914C6.72938 16.3685 6.45745 16.1713 6.24525 15.9175C6.03306 15.6637 5.88713 15.3612 5.82054 15.0372C5.75395 14.7132 5.76878 14.3777 5.86369 14.0608C5.9585 13.7442 6.13028 13.4561 6.36365 13.2221C6.3639 13.2219 6.36415 13.2216 6.36439 13.2214L10.4712 9.09462C10.8608 8.70314 11.4939 8.70161 11.8854 9.09118Z" fill="#1D2939"/>
<path fill-rule="evenodd" clip-rule="evenodd" d="M19.1218 3.20759C18.5135 4.35569 18.9189 5.36348 19.4755 5.6584C20.0321 5.95332 21.0937 5.72281 21.702 4.57471C22.3103 3.4266 21.9049 2.41881 21.3483 2.12389C20.7917 1.82898 19.7302 2.05948 19.1218 3.20759ZM18.5392 7.42565C16.6947 6.44838 16.4115 4.05118 17.3546 2.2712C18.2977 0.491225 20.4403 -0.620633 22.2847 0.35664C24.1291 1.33391 24.4124 3.73111 23.4693 5.51109C22.5262 7.29107 20.3836 8.40293 18.5392 7.42565Z" fill="#1D2939"/>
<path fill-rule="evenodd" clip-rule="evenodd" d="M19.4753 5.65842C19.9633 5.91704 20.1492 6.52229 19.8906 7.01028L18.2466 10.1123C17.9879 10.6003 17.3827 10.7862 16.8947 10.5276C16.4067 10.269 16.2208 9.66371 16.4794 9.17572L18.1234 6.07372C18.382 5.58573 18.9873 5.3998 19.4753 5.65842Z" fill="#1D2939"/>
</g>
<defs>
<clipPath id="clip0_686_591">
<rect width="24" height="24" fill="white"/>
</clipPath>
</defs>
</svg>
