<svg width="24" height="24" viewBox="0 0 24 24" fill="none" xmlns="http://www.w3.org/2000/svg">
<path fill-rule="evenodd" clip-rule="evenodd" d="M9.98406 14.0148C10.3746 14.4053 10.3747 15.0385 9.98416 15.4291L2.70716 22.7071C2.31666 23.0976 1.68349 23.0977 1.29294 22.7072C0.902391 22.3167 0.902347 21.6835 1.29284 21.2929L8.56985 14.0149C8.96034 13.6244 9.59351 13.6243 9.98406 14.0148Z" fill="#1D2939"/>
<path fill-rule="evenodd" clip-rule="evenodd" d="M16.0689 3.06324C14.5066 3.28876 12.8104 4.11818 11.3978 5.52945C9.98566 6.9402 9.15662 8.63592 8.93155 10.1984C8.70667 11.7596 9.08635 13.1148 9.98092 14.0117C10.5673 14.5861 11.3229 14.9565 12.1362 15.0683C12.6833 15.1435 13.0659 15.648 12.9907 16.1952C12.9155 16.7423 12.411 17.1249 11.8639 17.0497C10.623 16.8791 9.47013 16.3131 8.57639 15.4355L8.56988 15.4291L8.56991 15.4291C7.12377 13.983 6.66012 11.9395 6.95198 9.9133C7.24391 7.88657 8.29336 5.8038 9.98425 4.11455C11.6746 2.42582 13.757 1.37624 15.7831 1.08376C17.809 0.791332 19.852 1.25412 21.2983 2.70104L21.2992 2.702C23.2622 4.67112 23.412 7.69493 22.3269 10.3752C22.1197 10.8872 21.5367 11.1342 21.0248 10.9269C20.5128 10.7197 20.2658 10.1367 20.4731 9.62476C21.3699 7.40939 21.0939 5.32949 19.8833 4.11453C18.9866 3.21776 17.6313 2.8377 16.0689 3.06324Z" fill="#1D2939"/>
<path fill-rule="evenodd" clip-rule="evenodd" d="M17.999 13C16.8944 13 15.999 13.8954 15.999 15C15.999 16.1046 16.8944 17 17.999 17C19.1036 17 19.999 16.1046 19.999 15C19.999 13.8954 19.1036 13 17.999 13ZM13.999 15C13.999 12.7909 15.7899 11 17.999 11C20.2081 11 21.999 12.7909 21.999 15C21.999 17.2091 20.2081 19 17.999 19C15.7899 19 13.999 17.2091 13.999 15Z" fill="#1D2939"/>
</svg>
