<svg width="24" height="24" viewBox="0 0 24 24" fill="none" xmlns="http://www.w3.org/2000/svg">
<g clip-path="url(#clip0_686_589)">
<path fill-rule="evenodd" clip-rule="evenodd" d="M3.58476 3.45212C3.97074 3.05711 4.60386 3.04978 4.99888 3.43576C6.14021 4.55098 7.04681 5.88333 7.66528 7.35434C8.28361 8.82505 8.60143 10.4046 8.6 12C8.60143 13.5954 8.28361 15.175 7.66528 16.6457C7.04681 18.1167 6.14021 19.449 4.99888 20.5642C4.60386 20.9502 3.97074 20.9429 3.58476 20.5479C3.19878 20.1529 3.20611 19.5197 3.60113 19.1338C4.55158 18.2051 5.30657 17.0955 5.8216 15.8705C6.33663 14.6455 6.6013 13.3298 6.6 12.001V11.999C6.6013 10.6702 6.33663 9.35448 5.8216 8.12949C5.30657 6.90449 4.55158 5.79495 3.60113 4.86624C3.20611 4.48026 3.19878 3.84714 3.58476 3.45212ZM8.6 12C8.6 12.0003 8.6 12.0007 8.6 12.001L7.6 12L8.6 11.999C8.6 11.9994 8.6 11.9997 8.6 12Z" fill="#1D2939"/>
<path fill-rule="evenodd" clip-rule="evenodd" d="M20.4147 3.44954C20.801 3.84425 20.7942 4.47738 20.3995 4.86367C19.4495 5.79339 18.6948 6.90344 18.1795 8.12871C17.6642 9.35397 17.3988 10.6698 17.3988 11.999C17.3988 13.3282 17.6642 14.644 18.1795 15.8693C18.6948 17.0946 19.4495 18.2046 20.3995 19.1343C20.7942 19.5206 20.801 20.1537 20.4147 20.5485C20.0284 20.9432 19.3952 20.95 19.0005 20.5637C17.8603 19.4477 16.9544 18.1153 16.3359 16.6446C15.7174 15.1739 15.3988 13.5945 15.3988 11.999C15.3988 10.4035 15.7174 8.82412 16.3359 7.35341C16.9544 5.88269 17.8603 4.55028 19.0005 3.43432C19.3952 3.04802 20.0284 3.05484 20.4147 3.44954Z" fill="#1D2939"/>
<path fill-rule="evenodd" clip-rule="evenodd" d="M12 2C6.47715 2 2 6.47715 2 12C2 17.5228 6.47715 22 12 22C17.5228 22 22 17.5228 22 12C22 6.47715 17.5228 2 12 2ZM0 12C0 5.37258 5.37258 0 12 0C18.6274 0 24 5.37258 24 12C24 18.6274 18.6274 24 12 24C5.37258 24 0 18.6274 0 12Z" fill="#1D2939"/>
</g>
<defs>
<clipPath id="clip0_686_589">
<rect width="24" height="24" fill="white"/>
</clipPath>
</defs>
</svg>
