<svg width="24" height="24" viewBox="0 0 24 24" fill="none" xmlns="http://www.w3.org/2000/svg">
<g clip-path="url(#clip0_686_590)">
<path fill-rule="evenodd" clip-rule="evenodd" d="M3 4C3.55228 4 4 4.44772 4 5V10C4 10.5523 3.55228 11 3 11C2.44772 11 2 10.5523 2 10V5C2 4.44772 2.44772 4 3 4Z" fill="#1D2939"/>
<path fill-rule="evenodd" clip-rule="evenodd" d="M3 13C3.55228 13 4 13.4477 4 14V19C4 19.5523 3.55228 20 3 20C2.44772 20 2 19.5523 2 19V14C2 13.4477 2.44772 13 3 13Z" fill="#1D2939"/>
<path fill-rule="evenodd" clip-rule="evenodd" d="M21 13C21.5523 13 22 13.4477 22 14V19C22 19.5523 21.5523 20 21 20C20.4477 20 20 19.5523 20 19V14C20 13.4477 20.4477 13 21 13Z" fill="#1D2939"/>
<path fill-rule="evenodd" clip-rule="evenodd" d="M21 4C21.5523 4 22 4.44772 22 5V10C22 10.5523 21.5523 11 21 11C20.4477 11 20 10.5523 20 10V5C20 4.44772 20.4477 4 21 4Z" fill="#1D2939"/>
<path fill-rule="evenodd" clip-rule="evenodd" d="M4 3C4 2.44772 4.44772 2 5 2H10C10.5523 2 11 2.44772 11 3C11 3.55228 10.5523 4 10 4H5C4.44772 4 4 3.55228 4 3Z" fill="#1D2939"/>
<path fill-rule="evenodd" clip-rule="evenodd" d="M13 3C13 2.44772 13.4477 2 14 2H19C19.5523 2 20 2.44772 20 3C20 3.55228 19.5523 4 19 4H14C13.4477 4 13 3.55228 13 3Z" fill="#1D2939"/>
<path fill-rule="evenodd" clip-rule="evenodd" d="M13 21C13 20.4477 13.4477 20 14 20H19C19.5523 20 20 20.4477 20 21C20 21.5523 19.5523 22 19 22H14C13.4477 22 13 21.5523 13 21Z" fill="#1D2939"/>
<path fill-rule="evenodd" clip-rule="evenodd" d="M4 21C4 20.4477 4.44772 20 5 20H10C10.5523 20 11 20.4477 11 21C11 21.5523 10.5523 22 10 22H5C4.44772 22 4 21.5523 4 21Z" fill="#1D2939"/>
<path fill-rule="evenodd" clip-rule="evenodd" d="M3 2C2.44772 2 2 2.44772 2 3C2 3.55228 2.44772 4 3 4C3.55228 4 4 3.55228 4 3C4 2.44772 3.55228 2 3 2ZM0 3C0 1.34315 1.34315 0 3 0C4.65685 0 6 1.34315 6 3C6 4.65685 4.65685 6 3 6C1.34315 6 0 4.65685 0 3Z" fill="#1D2939"/>
<path fill-rule="evenodd" clip-rule="evenodd" d="M12 2C11.4477 2 11 2.44772 11 3C11 3.55228 11.4477 4 12 4C12.5523 4 13 3.55228 13 3C13 2.44772 12.5523 2 12 2ZM9 3C9 1.34315 10.3431 0 12 0C13.6569 0 15 1.34315 15 3C15 4.65685 13.6569 6 12 6C10.3431 6 9 4.65685 9 3Z" fill="#1D2939"/>
<path fill-rule="evenodd" clip-rule="evenodd" d="M21 2C20.4477 2 20 2.44772 20 3C20 3.55228 20.4477 4 21 4C21.5523 4 22 3.55228 22 3C22 2.44772 21.5523 2 21 2ZM18 3C18 1.34315 19.3431 0 21 0C22.6569 0 24 1.34315 24 3C24 4.65685 22.6569 6 21 6C19.3431 6 18 4.65685 18 3Z" fill="#1D2939"/>
<path fill-rule="evenodd" clip-rule="evenodd" d="M21 11C20.4477 11 20 11.4477 20 12C20 12.5523 20.4477 13 21 13C21.5523 13 22 12.5523 22 12C22 11.4477 21.5523 11 21 11ZM18 12C18 10.3431 19.3431 9 21 9C22.6569 9 24 10.3431 24 12C24 13.6569 22.6569 15 21 15C19.3431 15 18 13.6569 18 12Z" fill="#1D2939"/>
<path fill-rule="evenodd" clip-rule="evenodd" d="M21 20C20.4477 20 20 20.4477 20 21C20 21.5523 20.4477 22 21 22C21.5523 22 22 21.5523 22 21C22 20.4477 21.5523 20 21 20ZM18 21C18 19.3431 19.3431 18 21 18C22.6569 18 24 19.3431 24 21C24 22.6569 22.6569 24 21 24C19.3431 24 18 22.6569 18 21Z" fill="#1D2939"/>
<path fill-rule="evenodd" clip-rule="evenodd" d="M12 20C11.4477 20 11 20.4477 11 21C11 21.5523 11.4477 22 12 22C12.5523 22 13 21.5523 13 21C13 20.4477 12.5523 20 12 20ZM9 21C9 19.3431 10.3431 18 12 18C13.6569 18 15 19.3431 15 21C15 22.6569 13.6569 24 12 24C10.3431 24 9 22.6569 9 21Z" fill="#1D2939"/>
<path fill-rule="evenodd" clip-rule="evenodd" d="M3 20C2.44772 20 2 20.4477 2 21C2 21.5523 2.44772 22 3 22C3.55228 22 4 21.5523 4 21C4 20.4477 3.55228 20 3 20ZM0 21C0 19.3431 1.34315 18 3 18C4.65685 18 6 19.3431 6 21C6 22.6569 4.65685 24 3 24C1.34315 24 0 22.6569 0 21Z" fill="#1D2939"/>
<path fill-rule="evenodd" clip-rule="evenodd" d="M3 11C2.44772 11 2 11.4477 2 12C2 12.5523 2.44772 13 3 13C3.55228 13 4 12.5523 4 12C4 11.4477 3.55228 11 3 11ZM0 12C0 10.3431 1.34315 9 3 9C4.65685 9 6 10.3431 6 12C6 13.6569 4.65685 15 3 15C1.34315 15 0 13.6569 0 12Z" fill="#1D2939"/>
<path d="M12 14C13.1046 14 14 13.1046 14 12C14 10.8954 13.1046 10 12 10C10.8954 10 10 10.8954 10 12C10 13.1046 10.8954 14 12 14Z" fill="#1D2939"/>
</g>
<defs>
<clipPath id="clip0_686_590">
<rect width="24" height="24" fill="white"/>
</clipPath>
</defs>
</svg>
