<svg width="24" height="24" viewBox="0 0 24 24" fill="none" xmlns="http://www.w3.org/2000/svg">
<g clip-path="url(#clip0_716_757)">
<path fill-rule="evenodd" clip-rule="evenodd" d="M5 9C5.55228 9 6 9.44772 6 10V13C6 13.5523 5.55228 14 5 14C4.44772 14 4 13.5523 4 13V10C4 9.44772 4.44772 9 5 9Z" fill="#1D2939"/>
<path fill-rule="evenodd" clip-rule="evenodd" d="M19 9C19.5523 9 20 9.44772 20 10V13C20 13.5523 19.5523 14 19 14C18.4477 14 18 13.5523 18 13V10C18 9.44772 18.4477 9 19 9Z" fill="#1D2939"/>
<path fill-rule="evenodd" clip-rule="evenodd" d="M0 4C0 1.74772 1.74772 0 4 0H8C8.55228 0 9 0.447715 9 1C9 2.64772 10.3523 4 12 4C13.6477 4 15 2.64772 15 1C15 0.447715 15.4477 0 16 0H20C22.2523 0 24 1.74772 24 4V13C24 13.5523 23.5523 14 23 14H20V23C20 23.5523 19.5523 24 19 24H5C4.44772 24 4 23.5523 4 23V14H1C0.447715 14 0 13.5523 0 13V4ZM4 2C2.85228 2 2 2.85228 2 4V12H5C5.55228 12 6 12.4477 6 13V22H18V13C18 12.4477 18.4477 12 19 12H22V4C22 2.85228 21.1477 2 20 2H16.8991C16.4332 4.27654 14.41 6 12 6C9.58997 6 7.56682 4.27654 7.10092 2H4Z" fill="#1D2939"/>
</g>
<defs>
<clipPath id="clip0_716_757">
<rect width="24" height="24" fill="white"/>
</clipPath>
</defs>
</svg>
