<svg width="24" height="24" viewBox="0 0 24 24" fill="none" xmlns="http://www.w3.org/2000/svg">
<path fill-rule="evenodd" clip-rule="evenodd" d="M14.4653 14.4818C14.7493 14.0081 15.3635 13.8543 15.8372 14.1383L21.5432 17.5593C22.4465 18.101 23 19.0776 23 20.132V23C23 23.5523 22.5523 24 22 24H2C1.44772 24 1 23.5523 1 23V20.132C1 19.0784 1.55363 18.1019 2.45671 17.5604L8.16279 14.1393C8.63647 13.8553 9.25068 14.0091 9.53467 14.4828C9.81866 14.9565 9.66488 15.5707 9.19121 15.8547L3.48529 19.2756C3.48526 19.2756 3.48531 19.2756 3.48529 19.2756C3.18441 19.4561 3 19.7817 3 20.132V22H21V20.132C21 19.7804 20.8154 19.4549 20.5147 19.2746L14.8088 15.8537C14.3351 15.5697 14.1813 14.9555 14.4653 14.4818Z" fill="#1D2939"/>
<path fill-rule="evenodd" clip-rule="evenodd" d="M12 2C9.23829 2 7 4.23829 7 7V10C7 12.7617 9.23829 15 12 15C14.7617 15 17 12.7617 17 10V7C17 4.23829 14.7617 2 12 2ZM5 7C5 3.13372 8.13372 0 12 0C15.8663 0 19 3.13372 19 7V10C19 13.8663 15.8663 17 12 17C8.13372 17 5 13.8663 5 10V7Z" fill="#1D2939"/>
</svg>
