<svg width="128" height="128" viewBox="0 0 128 128" fill="none" xmlns="http://www.w3.org/2000/svg">
<path d="M101.333 26.1333L105.067 29.8667L57.8667 77.0667L54.1333 73.3333L101.333 26.1333ZM106.933 35.4667L110.667 39.2L67.4667 82.6667L63.7333 78.9333L106.933 35.4667ZM52.2667 67.7333L48.5333 64L92 20.5333L95.7333 24.2667L52.2667 67.7333Z" fill="#B8CDFF"/>
<path d="M71.7333 26.9333L105.6 60.8L101.867 64.5333L68 30.6667L71.7333 26.9333ZM94.4 72L60.5333 38.1333L64.2667 34.4L98.1333 68.2667L94.4 72ZM86.9333 79.7333L53.0667 45.6L56.8 41.8667L90.6666 75.7333L86.9333 79.7333Z" fill="#B8CDFF"/>
<path d="M38.4 96L34.6667 92.2667C45.6 81.3333 55.4667 80.8 64.8 80C74.4 79.2 84.2667 78.6667 97.0667 67.7333L100.533 71.7333C86.4 83.7333 75.2 84.5333 65.3333 85.3333C55.7333 86.1333 47.7333 86.6667 38.4 96Z" fill="#F2BD42"/>
<path d="M38.4 96L34.6667 92.2667C44.2667 82.6667 44.8 74.6667 45.3333 65.6C46.1333 55.7333 46.9333 44.2667 58.9333 30.4L62.9333 33.8667C52 46.6667 51.2 56.5333 50.6667 66.1333C49.8667 75.4667 49.3333 85.3333 38.4 96Z" fill="#F2BD42"/>
<path d="M89.3333 24C92.8 24 98.1333 24.8 101.867 28.8C105.6 32.5333 107.2 38.4 106.4 45.0667C105.333 52.5333 101.333 60 95.2 66.1333C88 73.3333 78.9333 77.6 70.6667 77.6C67.2 77.6 61.8667 76.8 58.1333 72.8C54.4 69.0667 52.8 63.2 53.6 56.5333C54.6667 49.0667 58.6667 41.6 64.8 35.4667C71.7333 28.2667 81.0667 24 89.3333 24ZM89.3333 16C79.2 16 68 20.8 58.9333 29.6C43.7333 44.8 40.8 66.6667 52.2667 78.1333C57.0667 82.9333 63.4667 85.0667 70.4 85.0667C80.5333 85.0667 91.7333 80.2667 100.8 71.4667C116 56.2667 118.933 34.4 107.467 22.9333C102.933 18.4 96.2667 16 89.3333 16Z" fill="#103DA3"/>
<path d="M24 114.667H18.6667L16 112V106.667L32 90.6667H36L40 94.6667V98.6667L24 114.667Z" fill="#2A64E9"/>
<path d="M29.6 93.0667L25.8667 96.8L33.8667 104.8L37.6 101.067L29.6 93.0667ZM26.1333 112.267L29.8667 108.533L21.8667 100.533L18.1333 104.267L26.1333 112.267Z" fill="#B8CDFF"/>
<path d="M48 32C48 42.4 39.7333 50.6667 29.3333 50.6667C18.9333 50.6667 10.6667 42.4 10.6667 32C10.6667 21.6 18.9333 13.3333 29.3333 13.3333C39.7333 13.3333 48 21.6 48 32Z" fill="#58C373"/>
<path d="M47.7333 29.0667C43.7333 29.0667 39.7333 27.4667 36.8 24.5333C33.8667 21.6 32.2667 17.6 32.2667 13.6C30.4 13.3333 28.8 13.3333 26.9333 13.6C26.9333 18.9333 29.0667 24.2667 33.0667 28.2667C37.0667 32.2667 42.4 34.4 47.7333 34.4C48 32.8 48 30.9333 47.7333 29.0667ZM25.6 35.7333C21.6 31.7333 16.2667 29.6 10.9333 29.6C10.6667 31.4667 10.6667 33.0667 10.9333 34.9333C14.9333 34.9333 18.6667 36.5333 21.8667 39.7333C25.0667 42.9333 26.4 46.6667 26.6667 50.6667C28.5333 50.9333 30.1333 50.9333 32 50.6667C31.7333 45.0667 29.6 39.7333 25.6 35.7333Z" fill="#AAFEA8"/>
</svg>
