<svg width="24" height="24" viewBox="0 0 24 24" fill="none" xmlns="http://www.w3.org/2000/svg">
<path d="M10.5 17.9844C11.7031 17.9844 12.625 17.4375 13.0938 16.5078H13.2266V17.8438H15.1797V8.26562H16.4375V7.01562H15.1797V6H13.2266V7.01562H10.8828V8.26562H13.2266V10.6641H13.0938C12.6484 9.74219 11.6719 9.16406 10.5 9.16406C8.33594 9.16406 7 10.8516 7 13.5703V13.5859C7 16.2891 8.35938 17.9844 10.5 17.9844ZM11.1094 16.3438C9.78125 16.3438 8.97656 15.3047 8.97656 13.5859V13.5703C8.97656 11.8516 9.78906 10.8047 11.1094 10.8047C12.4297 10.8047 13.2578 11.8594 13.2578 13.5703V13.5859C13.2578 15.2969 12.4375 16.3438 11.1094 16.3438Z" fill="black"/>
</svg>
