<svg width="24" height="24" viewBox="0 0 24 24" fill="none" xmlns="http://www.w3.org/2000/svg">
<g clip-path="url(#clip0_756_834)">
<path d="M20.92 22.9999H3.09C2.25 22.9999 1.5 22.6899 0.91 22.1099C0.32 21.5299 0 20.7599 0 19.9299C0 19.4299 0.12 18.9299 0.35 18.4799L9.27 1.63993C10.07 0.139928 11.94 -0.440071 13.45 0.359929C14 0.649929 14.45 1.09993 14.74 1.64993L23.65 18.4899C24.44 19.9899 23.86 21.8599 22.36 22.6499C21.92 22.8799 21.42 22.9999 20.92 22.9999ZM2.13 19.4199C2.05 19.5799 2.01 19.7499 2.01 19.9299C2.01 20.2199 2.12 20.4899 2.33 20.6899C2.53 20.8899 2.84 21.0099 3.09 20.9999H20.92C21.1 20.9999 21.27 20.9599 21.43 20.8799C21.96 20.5999 22.16 19.9499 21.88 19.4199L12.97 2.57993C12.87 2.38993 12.71 2.22993 12.52 2.11993C11.98 1.83993 11.32 2.03993 11.04 2.57993L2.13 19.4199Z" fill="#101828"/>
<path d="M13 7H11V15H13V7Z" fill="#101828"/>
<path d="M12 19C12.8284 19 13.5 18.3284 13.5 17.5C13.5 16.6716 12.8284 16 12 16C11.1716 16 10.5 16.6716 10.5 17.5C10.5 18.3284 11.1716 19 12 19Z" fill="#101828"/>
</g>
<defs>
<clipPath id="clip0_756_834">
<rect width="24" height="24" fill="white"/>
</clipPath>
</defs>
</svg>
